<?xml version="1.0" encoding="UTF-8"?>
<svg width="119px" height="31px" viewBox="0 0 119 31" version="1.1" xmlns="http://www.w3.org/2000/svg" xmlns:xlink="http://www.w3.org/1999/xlink">
    <!-- Generator: Sketch 48.2 (47327) - http://www.bohemiancoding.com/sketch -->
    <title>Page 1</title>
    <desc>Created with Sketch.</desc>
    <defs>
        <polygon id="path-1" points="0.293828253 0.428553993 16.5463086 0.428553993 16.5463086 19.3926204 0.293828253 19.3926204"></polygon>
        <polygon id="path-3" points="0 0.114576208 15.8632751 0.114576208 15.8632751 26.5558011 0 26.5558011"></polygon>
        <polygon id="path-5" points="0 30.0817844 118.7359 30.0817844 118.7359 0.114576208 0 0.114576208"></polygon>
    </defs>
    <g id="Menu/Normal" stroke="none" stroke-width="1" fill="none" fill-rule="evenodd" transform="translate(-30.000000, -22.000000)">
        <g id="Page-1" transform="translate(30.000000, 22.000000)">
            <polygon id="Fill-1" fill="#FFFFFF" points="56.9280074 26.8838695 62.2493866 26.8838695 62.2493866 0.443308178 56.9280074 0.443308178"></polygon>
            <g id="Group-23" transform="translate(0.000000, 0.327847)">
                <path d="M72.8193294,21.982087 C70.2247755,21.982087 68.2681323,20.0099606 68.2681323,17.3954996 C68.2681323,14.8009457 70.2247755,12.844745 72.8193294,12.844745 C75.292229,12.844745 77.1568572,14.8009457 77.1568572,17.3954996 C77.1568572,19.9674922 75.2515301,21.982087 72.8193294,21.982087 Z M77.0144112,9.74853309 C75.7151435,8.58507584 73.9310283,7.95026171 71.9288201,7.95026171 C67.518742,7.95026171 63.0533665,11.2070572 63.0533665,17.4313323 C63.0533665,21.1066186 64.6565487,23.3446149 66.0013814,24.574429 C67.6010245,26.0378193 69.7903591,26.9119606 71.857597,26.9119606 C73.8664409,26.9119606 75.7138164,26.1860164 77.0144112,24.9035591 L77.0144112,26.5558454 L82.3357903,26.5558454 L82.3357903,8.30637695 L77.0144112,8.30637695 L77.0144112,9.74853309 Z" id="Fill-2" fill="#FFFFFF"></path>
                <path d="M93.1920851,12.8446565 C95.786639,12.8446565 97.7432822,14.8008572 97.7432822,17.3954112 C97.7432822,20.0103145 95.786639,21.9819985 93.1920851,21.9819985 C90.7598844,21.9819985 88.8545572,19.9674037 88.8545572,17.3954112 C88.8545572,14.8008572 90.7191855,12.8446565 93.1920851,12.8446565 M94.1179848,7.95061561 C92.0547283,7.95061561 90.2595535,8.64249665 88.9970033,9.91212491 L88.9970033,0.115637918 L83.6756242,0.115637918 L83.6756242,26.5557569 L88.9970033,26.5557569 L88.9970033,24.9817717 C90.244955,26.2146825 92.1025052,26.9118721 94.1892078,26.9118721 C96.284758,26.9118721 98.4130442,26.0598498 100.028613,24.5743405 C101.365041,23.3449688 102.958048,21.1082996 102.958048,17.4312439 C102.958048,11.2069688 98.51081,7.95061561 94.1179848,7.95061561" id="Fill-4" fill="#FFFFFF"></path>
                <g id="Group-8" transform="translate(102.189591, 7.520446)">
                    <mask id="mask-2" fill="white">
                        <use xlink:href="#path-1"></use>
                    </mask>
                    <g id="Clip-7"></g>
                    <path d="M9.92265353,7.48554238 C7.27722602,6.95689926 6.39644907,6.68218178 6.39644907,6.10001078 C6.39644907,5.33602193 7.19892491,4.86090669 8.49022974,4.86090669 C9.94256059,4.86090669 11.1192892,5.55809628 11.5607836,6.67952751 L11.6439509,6.89054238 L16.381832,4.89364275 L16.2725643,4.68130074 C14.8016535,1.82043457 12.2677056,0.430036803 8.52960149,0.430036803 C6.14119628,0.390665056 4.04476134,1.13651636 2.63047509,2.52779888 C1.58159405,3.5603119 1.00384684,4.87948662 1.00384684,6.24245688 C1.00384684,10.2344866 4.3367316,11.3652078 7.5944119,11.9442822 L7.86735985,11.9960405 C9.5939658,12.322074 11.2250178,12.6295275 11.2250178,13.3652041 C11.2250178,14.0531037 10.5335792,14.7467543 8.98879108,14.7467543 C7.26130037,14.7467543 6.03944907,13.9579922 5.45550855,12.4654048 L5.37499554,12.2596985 L0.293828253,14.2380182 L0.379207435,14.4459364 C1.74040818,17.7735126 4.48669814,19.3912933 8.77202528,19.3912933 C8.8268803,19.3921781 8.88129294,19.3926204 8.9352632,19.3926204 C11.9306126,19.3926204 13.7430401,18.2313751 14.7410476,17.2475238 C15.8717688,16.1327283 16.546397,14.6281967 16.546397,13.222758 C16.546397,9.34884349 13.1984714,8.14866877 9.92265353,7.48554238" id="Fill-6" fill="#FFFFFF" mask="url(#mask-2)"></path>
                </g>
                <g id="Group-11">
                    <mask id="mask-4" fill="white">
                        <use xlink:href="#path-3"></use>
                    </mask>
                    <g id="Clip-10"></g>
                    <polygon id="Fill-9" fill="#FFFFFF" mask="url(#mask-4)" points="0 26.5558011 15.8632751 26.5558011 15.8632751 21.376868 5.39260223 21.376868 5.39260223 15.8714591 15.8632751 15.8714591 15.8632751 10.692526 5.39260223 10.692526 5.39260223 5.29417286 15.8632751 5.29417286 15.8632751 0.114355019 0 0.114355019"></polygon>
                </g>
                <path d="M25.0886063,1.31643197 L19.7672271,4.22905651 L19.7672271,8.30646543 L16.739584,8.30646543 L16.739584,13.1288409 L19.7672271,13.1288409 L19.7672271,18.6059375 C19.7672271,24.5501866 21.7190041,26.5559338 27.5026695,26.5559338 L28.436532,26.5559338 L28.436532,21.5548372 L28.2153424,21.5548372 C25.281926,21.5548372 25.0886063,21.1796996 25.0886063,18.5705472 L25.0886063,13.1288409 L28.436532,13.1288409 L28.436532,8.30646543 L25.0886063,8.30646543 L25.0886063,1.31643197 Z" id="Fill-12" fill="#FFFFFF"></path>
                <mask id="mask-6" fill="white">
                    <use xlink:href="#path-5"></use>
                </mask>
                <g id="Clip-15"></g>
                <polygon id="Fill-14" fill="#FFFFFF" mask="url(#mask-6)" points="29.5964944 26.5555799 34.918316 26.5555799 34.918316 8.30611152 29.5964944 8.30611152"></polygon>
                <path d="M32.3038108,6.99476691 C33.891952,6.99476691 35.1841416,5.70257732 35.1841416,4.11443606 C35.1841416,2.52585242 33.891952,1.2341052 32.3038108,1.2341052 C30.7156695,1.2341052 29.4234799,2.52585242 29.4234799,4.11443606 C29.4234799,5.70257732 30.7156695,6.99476691 32.3038108,6.99476691" id="Fill-16" fill="#FFFFFF" mask="url(#mask-6)"></path>
                <polygon id="Fill-17" fill="#0070C4" mask="url(#mask-6)" points="42.456413 16.9485197 33.2213052 30.0818729 39.3274651 30.0818729 48.470558 16.9485197"></polygon>
                <polygon id="Fill-18" fill="#0086FF" mask="url(#mask-6)" points="48.4552959 16.9626758 42.4968907 8.57251227 36.5729911 8.57251227 42.4513257 16.9626758"></polygon>
                <polygon id="Fill-19" fill="#137ABF" mask="url(#mask-6)" points="48.4452539 16.9485197 42.441726 16.9485197 48.9402762 26.223884 55.0327223 26.223884"></polygon>
                <polygon id="Fill-20" fill="#0094EF" mask="url(#mask-6)" points="48.4116773 17.0328814 56.0232535 6.09903755 50.0856401 6.09903755 42.39709 17.0328814"></polygon>
                <polygon id="Fill-21" fill="#147ED7" mask="url(#mask-6)" points="45.4656974 21.2647249 48.4579502 16.9665688 48.4451212 16.9484312 42.4566342 16.9484312 42.4491138 16.9590483"></polygon>
                <polygon id="Fill-22" fill="#0086EA" mask="url(#mask-6)" points="42.4515468 16.9627643 48.4550747 16.9627643 45.4358368 12.7115004 42.4488926 16.9592253"></polygon>
            </g>
        </g>
    </g>
</svg>