<?xml version="1.0" encoding="UTF-8"?>
<svg width="106px" height="28px" viewBox="0 0 106 28" version="1.1" xmlns="http://www.w3.org/2000/svg" xmlns:xlink="http://www.w3.org/1999/xlink">
    <!-- Generator: Sketch 48.2 (47327) - http://www.bohemiancoding.com/sketch -->
    <title>Page 1</title>
    <desc>Created with Sketch.</desc>
    <defs>
        <polygon id="path-1" points="0.261729368 0.381697765 14.7387286 0.381697765 14.7387286 17.2740595 0.261729368 17.2740595"></polygon>
        <polygon id="path-3" points="0 0.10205948 14.1303123 0.10205948 14.1303123 23.6547078 0 23.6547078"></polygon>
        <polygon id="path-5" points="0 26.795539 105.764751 26.795539 105.764751 0.10205948 0 0.10205948"></polygon>
    </defs>
    <g id="Menu/Scroll" stroke="none" stroke-width="1" fill="none" fill-rule="evenodd" transform="translate(-30.000000, -18.000000)">
        <g id="Page-1" transform="translate(30.000000, 18.000000)">
            <g id="Group-23" transform="translate(0.000000, 0.292032)">
                <path d="M64.8642766,19.5806825 C62.5531613,19.5806825 60.8102691,17.8239985 60.8102691,15.4951509 C60.8102691,13.1840357 62.5531613,11.4415375 64.8642766,11.4415375 C67.0670275,11.4415375 68.7279569,13.1840357 68.7279569,15.4951509 C68.7279569,17.7861695 67.0307747,19.5806825 64.8642766,19.5806825 Z M68.6010721,8.68356729 C67.4437413,7.64721041 65.8545294,7.08174572 64.0710498,7.08174572 C60.142745,7.08174572 56.1651836,9.98275688 56.1651836,15.5270691 C56.1651836,18.8008535 57.5932283,20.7943628 58.7911465,21.8898275 C60.2160387,23.1933517 62.1662022,23.9719985 64.0076074,23.9719985 C65.7969978,23.9719985 67.4425591,23.3253591 68.6010721,22.1830022 L68.6010721,23.6547866 L73.3411242,23.6547866 L73.3411242,7.39895762 L68.6010721,7.39895762 L68.6010721,8.68356729 Z" id="Fill-2" fill="#152654"></path>
                <path d="M83.0114372,11.4414193 C85.3225524,11.4414193 87.0654446,13.1839175 87.0654446,15.4950327 C87.0654446,17.8242743 85.3225524,19.5805643 83.0114372,19.5805643 C80.844939,19.5805643 79.1477569,17.7860513 79.1477569,15.4950327 C79.1477569,13.1839175 80.8086862,11.4414193 83.0114372,11.4414193 M83.8361881,7.08202156 C81.9983294,7.08202156 80.3992662,7.69831896 79.2746416,8.82924833 L79.2746416,0.102965799 L74.5345896,0.102965799 L74.5345896,23.6546684 L79.2746416,23.6546684 L79.2746416,22.2526312 C80.3862625,23.3508543 82.040887,23.9718803 83.8996305,23.9718803 C85.766255,23.9718803 87.6620394,23.2129361 89.1011175,21.8897093 C90.2915487,20.7946387 91.7105301,18.8023115 91.7105301,15.5269509 C91.7105301,9.98263866 87.7491249,7.08202156 83.8361881,7.08202156" id="Fill-4" fill="#152654"></path>
                <g id="Group-8" transform="translate(91.026022, 6.698885)">
                    <mask id="mask-2" fill="white">
                        <use xlink:href="#path-1"></use>
                    </mask>
                    <g id="Clip-7"></g>
                    <path d="M8.83866617,6.66775465 C6.48223494,6.19686245 5.69767732,5.95215613 5.69767732,5.43358364 C5.69767732,4.75305576 6.41248773,4.32984387 7.56272565,4.32984387 C8.85639851,4.32984387 9.90457695,4.95086989 10.2978409,5.94979182 L10.3719227,6.13775465 L14.5922201,4.35900372 L14.4948892,4.16985874 C13.1846662,1.62152416 10.9275361,0.383018587 7.59779628,0.383018587 C5.47030929,0.347947955 3.60289665,1.0123197 2.34311227,2.25161338 C1.40881487,3.17133086 0.8941829,4.34639405 0.8941829,5.5604684 C0.8941829,9.11639405 3.862971,10.1235911 6.76477026,10.6394052 L7.00790037,10.6855093 C8.5458855,10.9759257 9.99875539,11.2497918 9.99875539,11.9051004 C9.99875539,12.5178513 9.38285204,13.1357249 8.0068223,13.1357249 C6.46804907,13.1357249 5.37967732,12.4331301 4.85952862,11.1035985 L4.78781115,10.9203643 L0.261729368,12.6825651 L0.337781413,12.8677695 C1.55027955,15.831829 3.99655465,17.2728773 7.8137368,17.2728773 C7.86259926,17.2736654 7.91106766,17.2740595 7.95914201,17.2740595 C10.6272684,17.2740595 12.2416996,16.2396729 13.130681,15.3633011 C14.1378781,14.37029 14.7388074,13.030119 14.7388074,11.7782156 C14.7388074,8.32750186 11.7566216,7.25843866 8.83866617,6.66775465" id="Fill-6" fill="#152654" mask="url(#mask-2)"></path>
                </g>
                <g id="Group-11">
                    <mask id="mask-4" fill="white">
                        <use xlink:href="#path-3"></use>
                    </mask>
                    <g id="Clip-10"></g>
                    <polygon id="Fill-9" fill="#152654" mask="url(#mask-4)" points="0 23.6547078 14.1303123 23.6547078 14.1303123 19.0415405 4.80349442 19.0415405 4.80349442 14.1375628 14.1303123 14.1375628 14.1303123 9.52439554 4.80349442 9.52439554 4.80349442 4.71577844 14.1303123 4.71577844 14.1303123 0.101823048 0 0.101823048"></polygon>
                </g>
                <path d="M22.3478342,1.17258067 L17.6077822,3.76701933 L17.6077822,7.39899703 L14.91089,7.39899703 L14.91089,11.6945584 L17.6077822,11.6945584 L17.6077822,16.5733167 C17.6077822,21.8681941 19.3463398,23.654826 24.4981762,23.654826 L25.3300201,23.654826 L25.3300201,19.2000677 L25.1329941,19.2000677 C22.5200349,19.2000677 22.3478342,18.8659115 22.3478342,16.5417926 L22.3478342,11.6945584 L25.3300201,11.6945584 L25.3300201,7.39899703 L22.3478342,7.39899703 L22.3478342,1.17258067 Z" id="Fill-12" fill="#152654"></path>
                <mask id="mask-6" fill="white">
                    <use xlink:href="#path-5"></use>
                </mask>
                <g id="Clip-15"></g>
                <polygon id="Fill-14" fill="#152654" mask="url(#mask-6)" points="26.3632639 23.6545502 31.10371 23.6545502 31.10371 7.39872119 26.3632639 7.39872119"></polygon>
                <path d="M28.774823,6.23063271 C30.1894699,6.23063271 31.3404959,5.07960669 31.3404959,3.66495985 C31.3404959,2.24991896 30.1894699,1.09928699 28.774823,1.09928699 C27.3601762,1.09928699 26.2091502,2.24991896 26.2091502,3.66495985 C26.2091502,5.07960669 27.3601762,6.23063271 28.774823,6.23063271" id="Fill-16" fill="#152654" mask="url(#mask-6)"></path>
                <polygon id="Fill-17" fill="#0070C4" mask="url(#mask-6)" points="37.8183175 15.0970401 29.592087 26.7956572 35.0311874 26.7956572 43.175455 15.0970401"></polygon>
                <polygon id="Fill-18" fill="#0086FF" mask="url(#mask-6)" points="43.1618208 15.1096498 37.8543338 7.63605874 32.5775829 7.63605874 37.8137465 15.1096498"></polygon>
                <polygon id="Fill-19" fill="#137ABF" mask="url(#mask-6)" points="43.1529152 15.0970401 37.8052349 15.0970401 43.5938595 23.3591294 49.0207442 23.3591294"></polygon>
                <polygon id="Fill-20" fill="#0094EF" mask="url(#mask-6)" points="43.1230067 15.1721465 49.9030662 5.43275613 44.6140996 5.43275613 37.7654751 15.1721465"></polygon>
                <polygon id="Fill-21" fill="#147ED7" mask="url(#mask-6)" points="40.4988565 18.9416877 43.1642245 15.1130781 43.152797 15.0969219 37.8185145 15.0969219 37.8118156 15.1063792"></polygon>
                <polygon id="Fill-22" fill="#0086EA" mask="url(#mask-6)" points="37.8139829 15.1096892 43.1616632 15.1096892 40.472258 11.3228491 37.8116186 15.1065368"></polygon>
                <polygon id="Fill-1" fill="#152654" mask="url(#mask-6)" points="50.7089814 23.6549442 55.4490335 23.6549442 55.4490335 0.102847584 50.7089814 0.102847584"></polygon>
            </g>
        </g>
    </g>
</svg>