<svg height="93" viewBox="0 0 105 93" width="105" xmlns="http://www.w3.org/2000/svg"><g fill="none" fill-rule="evenodd"><rect height="18.1875" rx="5" stroke="#fff" stroke-width="1.5" width="103.5" x=".75" y=".75"/><g fill="#fff"><circle cx="7.96875" cy="9.84375" r="1.40625"/><circle cx="15.46875" cy="9.84375" r="1.40625"/><circle cx="22.96875" cy="9.84375" r="1.40625"/><circle cx="30.46875" cy="9.84375" r="1.40625"/><path d="m76.875.9375h1.40625v17.8125h-1.40625z"/><path d="m70.3125.9375h1.40625v17.8125h-1.40625z"/><path d="m63.75.9375h1.40625v17.8125h-1.40625z"/><path d="m57.1875.9375h1.40625v17.8125h-1.40625z"/><path d="m83.4375.9375h1.40625v17.8125h-1.40625z"/><path d="m90 .9375h1.40625v17.8125h-1.40625z"/><path d="m96.5625.9375h1.40625v17.8125h-1.40625z"/></g><rect height="18.1875" rx="5" stroke="#fff" stroke-width="1.5" width="103.5" x=".75" y="25.125"/><rect height="18.1875" rx="5" stroke="#fff" stroke-width="1.5" width="103.5" x=".75" y="49.5"/><circle cx="7.96875" cy="58.59375" fill="#fff" r="1.40625"/><circle cx="15.46875" cy="58.59375" fill="#fff" r="1.40625"/><circle cx="22.96875" cy="58.59375" fill="#fff" r="1.40625"/><circle cx="30.46875" cy="58.59375" fill="#fff" r="1.40625"/><path d="m76.875 49.6875h1.40625v17.8125h-1.40625z" fill="#fff"/><path d="m70.3125 49.6875h1.40625v17.8125h-1.40625z" fill="#fff"/><path d="m63.75 49.6875h1.40625v17.8125h-1.40625z" fill="#fff"/><path d="m57.1875 49.6875h1.40625v17.8125h-1.40625z" fill="#fff"/><path d="m83.4375 49.6875h1.40625v17.8125h-1.40625z" fill="#fff"/><path d="m90 49.6875h1.40625v17.8125h-1.40625z" fill="#fff"/><path d="m96.5625 49.6875h1.40625v17.8125h-1.40625z" fill="#fff"/><rect height="18.1875" rx="5" stroke="#fff" stroke-width="1.5" width="103.5" x=".75" y="73.875"/><circle cx="7.96875" cy="82.96875" fill="#fff" r="1.40625"/><circle cx="15.46875" cy="82.96875" fill="#fff" r="1.40625"/><circle cx="22.96875" cy="82.96875" fill="#fff" r="1.40625"/><circle cx="30.46875" cy="82.96875" fill="#fff" r="1.40625"/><path d="m76.875 74.0625h1.40625v17.8125h-1.40625z" fill="#fff"/><path d="m70.3125 74.0625h1.40625v17.8125h-1.40625z" fill="#fff"/><path d="m63.75 74.0625h1.40625v17.8125h-1.40625z" fill="#fff"/><path d="m57.1875 74.0625h1.40625v17.8125h-1.40625z" fill="#fff"/><path d="m83.4375 74.0625h1.40625v17.8125h-1.40625z" fill="#fff"/><path d="m90 74.0625h1.40625v17.8125h-1.40625z" fill="#fff"/><path d="m96.5625 74.0625h1.40625v17.8125h-1.40625z" fill="#fff"/></g></svg>