<svg height="72" viewBox="0 0 72 72" width="72" xmlns="http://www.w3.org/2000/svg"><g fill="none" fill-rule="evenodd" stroke="#0086ff" stroke-width="1.5" transform="translate(1 1)"><path d="m69.9985048 39.3990174.0014952-9.5636014-5.6721599-1.2141408c-.2915701-1.1834882-.6504256-2.3393143-1.073576-3.4637402l4.2561758-3.8450283-4.781002-8.2829222-5.8882208 1.9027022c-.756587-.8014526-1.5565357-1.5602905-2.3953605-2.2742711l1.8645534-5.76716865-8.282086-4.78404358-4.2083285 4.65919044c-1.0257286-.32297341-2.0746334-.59286554-3.1429761-.80743352l-1.2769276-5.95856029h-9.5627516l-1.2761799 5.95856029c-1.1333853.22727758-2.2443422.52184129-3.3298801.87172915l-3.921244-4.34070277-8.2790956 4.78105308 1.7449349 5.40083305c-.9771336.8336004-1.9056723 1.7240201-2.7699159 2.6705116l-5.11593386-1.6522482-4.78100202 8.2821745 3.78443037 3.4196305c-.49940725 1.3584321-.90237208 2.7632169-1.20665164 4.2061305l-4.6845596 1.0033109-.00224285 9.5613585 4.46177014.9569583c.27437494 1.6171099.67509692 3.1908576 1.19468979 4.7107764l-3.16689985 2.8596604 4.78324487 8.2814269 3.96610095-1.2821745c1.1169378 1.3225462 2.3430274 2.5479013 3.6670547 3.6641034l-1.2141278 3.7568087 8.2798432 4.7810531 2.7071163-2.9949803c1.6417639.5637082 3.34558.9988252 5.1017291 1.2754459l.820882 3.8270854 9.562004.0014952.8836817-4.1253872c1.6679305-.3573641 3.2827803-.8515433 4.8378208-1.4683328l2.8035587 3.104881 8.2813384-4.7810531-1.435422-4.447613c1.1251615-1.0541493 2.1718234-2.1950229 3.1287714-3.4099113l4.4460702 1.4369326 4.7847401-8.2799317-3.8943298-3.5190644c.3790411-1.3053508.6795826-2.6435971.8821864-4.0132436z"/><path d="m25.3553158 52c-6.587974-3.210922-11.1806899-9.8118493-11.3504831-17.5242781-.2429928-11.0683936 8.7077471-20.2319904 19.9918223-20.471015 1.3674008-.0288605 2.7061254.0754815 4.003345.2997058"/><path d="m43.3263734 16c6.7610626 3.2264462 11.4964519 10.0622143 11.6687853 18.0693094.2433832 11.3137486-8.7202213 20.682852-20.023932 20.9257434-1.3559917.0295102-2.6832613-.0733971-3.9712267-.2981284"/><path d="m42.7137502 13-6.7486961 9.1281193-10.6497588 14.4038806-2.3152953 3.1316379h3.8890664 4.6650802l-1.9659017 6.4684441-3.3012453 10.8679181 6.7479463-9.1281193 10.6497588-14.4046322 2.3152953-3.1308863h-3.8883166-4.66583l1.9659017-6.4691957z"/></g></svg>