<svg height="71" viewBox="0 0 50 71" width="50" xmlns="http://www.w3.org/2000/svg"><g fill="none" fill-rule="evenodd" transform="translate(1 1)"><g stroke="#0086ff" stroke-linecap="round" stroke-width="1.5"><path d="m41.6525062 38.5655965h-34.65418391c-.74647888 0-1.35024855-.6037697-1.35024855-1.3502485v-.6915908c0-.7464788.60376967-1.3502485 1.35024855-1.3502485h34.65418391c.7464789 0 1.3524441.6037697 1.3524441 1.3502485v.6915908c0 .7464788-.6059652 1.3502485-1.3524441 1.3502485z" stroke-linejoin="round"/><path d="m41.6483347 19.4296106h-34.64320628c-.75086993 0-1.35683513-.6059652-1.35683513-1.3568351v-.7047639c0-.7508699.6059652-1.3590307 1.35683513-1.3590307h34.64320628c.7486744 0 1.3568351.6081608 1.3568351 1.3590307v.7047639c0 .7508699-.6081607 1.3568351-1.3568351 1.3568351z" stroke-linejoin="round"/><path d="m24.3262925 54.2943455v3.5589478" stroke-linejoin="round"/><path d="m.25498343 63.0057539h18.54780447" stroke-linejoin="round"/><path d="m29.6372701 63.0057539h18.5478045" stroke-linejoin="round"/><path d="m29.6372701 63.1644905c0-2.9332229-2.3777548-5.3109777-5.3109776-5.3109777-2.9332229 0-5.3109777 2.3777548-5.3109777 5.3109777 0 2.9332228 2.3777548 5.3109776 5.3109777 5.3109776 2.9332228 0 5.3109776-2.3777548 5.3109776-5.3109776z" stroke-linejoin="round"/><path d="m39.0538815 49.6481732c-1.6883595 0-3.0583678-1.3678128-3.0583678-3.0583679 0-1.686164 1.3700083-3.0539768 3.0583678-3.0539768 1.6883596 0 3.0561724 1.3678128 3.0561724 3.0539768 0 1.6905551-1.3678128 3.0583679-3.0561724 3.0583679zm7.4011185-11.0764292h-44.25741508c-.59279205 0-1.07141673.4786247-1.07141673 1.0692212v13.58372c0 .588401.47862468 1.0692212 1.07141673 1.0692212h44.25741508c.592792 0 1.0692212-.4808202 1.0692212-1.0692212v-13.58372c0-.5905965-.4764292-1.0692212-1.0692212-1.0692212z" stroke-linejoin="round"/><path d="m39.0538815 30.2443331c-1.6883595 0-3.0583678-1.3678128-3.0583678-3.0561724 0-1.686164 1.3700083-3.0539768 3.0583678-3.0539768 1.6883596 0 3.0561724 1.3678128 3.0561724 3.0539768 0 1.6883596-1.3678128 3.0561724-3.0561724 3.0561724zm7.4011185-10.8327258h-44.25741508c-.59279205 0-1.07141673.4808202-1.07141673 1.0736123v13.5793289c0 .592792.47862468 1.0736122 1.07141673 1.0736122h44.25741508c.592792 0 1.0692212-.4808202 1.0692212-1.0736122v-13.5793289c0-.5927921-.4764292-1.0736123-1.0692212-1.0736123z" stroke-linejoin="round"/><path d="m39.0538815 11.1665286c-1.6883595 0-3.0583678-1.3700083-3.0583678-3.05836787 0-1.68616404 1.3700083-3.0539768 3.0583678-3.0539768 1.6883596 0 3.0561724 1.36781276 3.0561724 3.0539768 0 1.68835957-1.3678128 3.05836787-3.0561724 3.05836787zm7.4011185-10.91176472h-44.25741508c-.59279205 0-1.07141673.48082021-1.07141673 1.07141673v13.58152449c0 .5905965.47862468 1.0692212 1.07141673 1.0692212h44.25741508c.592792 0 1.0692212-.4786247 1.0692212-1.0692212v-13.58152449c0-.59279204-.4764292-1.07141673-1.0692212-1.07141673z" stroke-linejoin="round"/></g><path d="m15.8078708 8.70248964h.7772162v-.77721623h-.7772162z"/><path d="m15.8078708 8.70248964h.7772162v-.77721623h-.7772162z" stroke="#0086ff" stroke-linecap="round" stroke-width="1.5"/><path d="m8.33429992 8.70248964h.77721624v-.77721623h-.77721624z"/><path d="m8.33429992 8.70248964h.77721624v-.77721623h-.77721624z" stroke="#0086ff" stroke-linecap="round" stroke-width="1.5"/><path d="m15.8078708 27.7903935h.7772162v-.7772162h-.7772162z"/><path d="m15.8078708 27.7903935h.7772162v-.7772162h-.7772162z" stroke="#0086ff" stroke-linecap="round" stroke-width="1.5"/><path d="m8.33429992 27.7903935h.77721624v-.7772162h-.77721624z"/><path d="m8.33429992 27.7903935h.77721624v-.7772162h-.77721624z" stroke="#0086ff" stroke-linecap="round" stroke-width="1.5"/><path d="m15.8078708 47.26471h.7772162v-.7750207h-.7772162z"/><path d="m15.8078708 47.26471h.7772162v-.7750207h-.7772162z" stroke="#0086ff" stroke-linecap="round" stroke-width="1.5"/><path d="m8.33429992 47.26471h.77721624v-.7750207h-.77721624z"/><path d="m8.33429992 47.26471h.77721624v-.7750207h-.77721624z" stroke="#0086ff" stroke-linecap="round" stroke-width="1.5"/></g></svg>