<svg height="92" viewBox="0 0 140 92" width="140" xmlns="http://www.w3.org/2000/svg"><g fill="none" fill-rule="evenodd" transform=""><g stroke="#fff" stroke-width="1.5"><path d="m139.64375 84.7707134c-20.747551 0-30.748935-23.1299342-40.417247-45.5012066-8.2065007-18.975798-15.9596546-36.89687104-28.9725556-36.89687104s-20.766055 17.92107304-28.9725556 36.89687104c-9.6683125 22.3712724-19.6696961 45.5012066-40.41724706 45.5012066"/><path d="m44.2327714 32.728824v58.5464895" stroke-dasharray="3 2"/><path d="m67.7966232 3.2376953v87.89375" stroke-dasharray="3 2"/><path d="m35.5590461 52.2444747v39.034077" stroke-dasharray="3 2"/><path d="m26.8853207 67.4237253v23.8515882" stroke-dasharray="3 2"/><path d="m18.2115954 78.2656507v13.012901" stroke-dasharray="3 2"/><path d="m9.53787007 82.6025134v8.6737253" stroke-dasharray="3 2"/><path d="m96.2751234 91.2762387v-58.5464895" stroke-dasharray="3 2"/><path d="m104.948849 91.2762387v-39.034077" stroke-dasharray="3 2"/><path d="m113.622574 91.2762387v-23.8515882" stroke-dasharray="3 2"/><path d="m122.296299 91.2762387v-13.012901" stroke-dasharray="3 2"/><path d="m130.970025 91.2762387v-8.6737253" stroke-dasharray="3 2"/><path d="m43.0641087 34.897024h-23.8515881"/><path d="m122.296299 2.37032276h-52.0423516"/></g><circle cx="127.5" cy="2.5" fill="#fff" r="2.5"/><circle cx="15" cy="35" fill="#fff" r="2"/></g></svg>