<svg height="84" viewBox="0 0 148 84" width="148" xmlns="http://www.w3.org/2000/svg"><g fill="none" fill-rule="evenodd" stroke="#fff" stroke-width="1.5"><rect height="17.176471" rx="8.588235" width="17.176471" x="22.470588" y="43.941177"/><rect height="17.176471" rx="8.588235" width="17.176471" x="22.470588" y="65.411765"/><rect height="17.176471" rx="8.588235" width="17.176471" x="1" y="65.411765"/><rect height="17.176471" rx="8.588235" width="17.176471" x="43.941177" y="65.411765"/><rect height="17.176471" rx="8.588235" stroke-dasharray="14 2" width="17.176471" x="65.411765" y="65.411765"/><rect height="17.176471" rx="8.588235" width="17.176471" x="86.882353" y="65.411765"/><rect height="17.176471" rx="8.588235" width="17.176471" x="108.352941" y="65.411765"/><rect height="17.176471" rx="8.588235" width="17.176471" x="129.823529" y="65.411765"/><rect height="17.176471" rx="8.588235" width="17.176471" x="43.941177" y="43.941177"/><rect height="17.176471" rx="8.588235" stroke-dasharray="14 2" width="17.176471" x="43.941177" y="22.470588"/><rect height="17.176471" rx="8.588235" width="17.176471" x="65.411765" y="1"/><rect height="17.176471" rx="8.588235" width="17.176471" x="65.411765" y="22.470588"/><rect height="17.176471" rx="8.588235" width="17.176471" x="86.882353" y="22.470588"/><rect height="17.176471" rx="8.588235" width="17.176471" x="65.411765" y="43.941177"/><rect height="17.176471" rx="8.588235" stroke-dasharray="14 2" width="17.176471" x="86.882353" y="43.941177"/><rect height="17.176471" rx="8.588235" width="17.176471" x="108.352941" y="43.941177"/></g></svg>