<svg height="117" viewBox="0 0 125 117" width="125" xmlns="http://www.w3.org/2000/svg"><g style="stroke:#fff;stroke-width:1.5;fill:none;fill-rule:evenodd;stroke-linecap:round;stroke-linejoin:round" transform="translate(1 1)"><path d="m49.4285799 87.9208398 2.8494489-6.7938566-4.4058997-1.8509793c.797291-3.365732.7834251-6.7834578.0485307-10.0209384l4.4197657-1.805918-2.7905187-6.8215866-4.4162992 1.805918c-1.7471074-2.8249964-4.1320477-5.2721713-7.0612257-7.1127518l1.8476353-4.4090743-6.7943065-2.8492602-1.8476354 4.405608c-3.3694214-.7972383-6.783907-.7833733-10.0250685-.0485276l-1.8060376-4.419473-6.8220384 2.7903339 1.8095041 4.4160068c-2.8286501 1.7469917-5.27252056 4.131774-7.11668947 7.0607581l-4.40589978-1.8475131-2.85291544 6.7938566 4.40589978 1.8509793c-.79382458 3.365732-.78342513 6.7834578-.04853076 10.0209384l-4.41629923 1.805918 2.78705226 6.8215866 4.41976572-1.8093843c1.74710739 2.8249965 4.13204762 5.2721714 7.05775922 7.1196844l-1.8476354 4.405608 6.797773 2.8492603 1.8476354-4.405608c3.3659549.793772 6.7839071.7833732 10.0216021.0485275l1.8060376 4.4194735 6.8220384-2.7903344-1.8060376-4.419473c2.8251835-1.7435255 5.2725205-4.1283078 7.1166894-7.0572918z"/><path d="m37.8904804 79.2375136c-2.652412 6.3274925-9.9371087 9.3093748-16.2678978 6.653475-6.3273579-2.6558997-9.3057454-9.9407514-6.6533335-16.2682439 2.6558433-6.3274924 9.94054-9.3059433 16.2713292-6.6534749 6.3273578 2.6558997 9.3057453 9.93732 6.6499021 16.2682438z"/><path d="m58.8829787 95.5212766c-1.1548086 3.3887471-2.871416 6.4196764-5.0007028 9.0296424-7.4316964 9.113836-19.9473251 13.077898-31.637595 8.991055"/><path d="m43.1808511 28.787234c1.6955056-4.967103 4.2029435-9.4157192 7.3210363-13.245608 10.886033-13.36313161 29.2125041-19.18055286 46.3278998-13.18338954"/><path d="m98.8070228 64.0019262c-6.6371573 6.5292643-17.3115996 6.4422539-23.8408639-.1983838-6.5292643-6.6371573-6.4422539-17.3115996.1983838-23.8408639 6.6371573-6.5292643 17.3081192-6.4387735 23.8373835.1983838 6.5292648 6.6371573 6.4422538 17.3115996-.1949034 23.8408639zm17.6700822-6.8285803 6.41093.0556867.08005-9.898309-6.40745-.0522063c-.699564-4.4062093-2.384086-8.6732019-5.057047-12.4772988l4.57675-4.4967002-6.939954-7.0548074-4.573269 4.4967001c-3.758852-2.7286477-7.998001-4.4862589-12.3902887-5.2554313l.0522063-6.4144105-9.8948286-.0765692-.0556867 6.4074497c-4.4027289.699564-8.6697214 2.3840864-12.4738184 5.053567l-4.4967002-4.5732693-7.0582878 6.9399536 4.5001805 4.5732694c-2.7321281 3.7588515-4.4862589 7.9980008-5.2589117 12.3902884l-6.4074497-.0522063-.08353 9.8948286 6.4109301.0522063c.6960836 4.4062093 2.3840864 8.6732018 5.0535671 12.4738184l-4.5767498 4.5001806 6.9399536 7.0582878 4.5767498-4.5001805c3.7553711 2.7321282 7.9980008 4.4862589 12.3902884 5.2589117l-.0556867 6.4074497 9.8948286.08353.0556867-6.4109301c4.4027289-.6960836 8.6732022-2.3840864 12.4738182-5.0535671l4.500181 4.5732694 7.054807-6.9399537-4.50018-4.5732693c2.732128-3.7553711 4.489739-7.9980008 5.258911-12.3902884z"/><path d="m89.2340426 51.6186239c0 1.4455316-1.1723743 2.6154187-2.6170213 2.6154187s-2.6170213-1.1698871-2.6170213-2.6154187c0-1.4487369 1.1723743-2.6186239 2.6170213-2.6186239s2.6170213 1.169887 2.6170213 2.6186239z"/><path d="m29.2340426 74.6170213c0 1.444647-1.1723743 2.6170213-2.6170213 2.6170213s-2.6170213-1.1723743-2.6170213-2.6170213 1.1723743-2.6170213 2.6170213-2.6170213 2.6170213 1.1723743 2.6170213 2.6170213z"/></g></svg>