<svg height="100" viewBox="0 0 153 100" width="153" xmlns="http://www.w3.org/2000/svg"><g style="stroke:#fff;stroke-width:1.5;fill:none;fill-rule:evenodd;stroke-linecap:round;stroke-linejoin:round" transform="translate(1 1)"><path d="m130.156671 0h-109.3094175c-5.1448498 0-9.3125313 4.15787249-9.3125313 9.28669824v79.84524616h7.2679343v-78.9251896c0-1.22152189.9928657-2.21205083 2.2172693-2.21205083h108.3165512c1.228328 0 2.21727.99052894 2.21727 2.21205083v78.9251896h7.911531v-79.84524616c0-5.12882575-4.167682-9.28669824-9.308607-9.28669824z"/><path d="m129.897919 8.38888889h-108.7958385c-1.2298214 0-2.2270805.98571671-2.2270805 2.20130411v78.5417514h113.25v-78.5417514c0-1.2155874-.997259-2.20130411-2.227081-2.20130411z"/><path d="m87.081179 89.1319444-1.9597102 2.1063012h-21.6591265l-1.955775-2.1063012h-61.5065673v2.098231c0 3.4741863 2.61294694 6.2906579 5.83584384 6.2906579h139.33224716c3.218962 0 5.831909-2.8164716 5.831909-6.2906579v-2.098231z"/><path d="m53.4791667 89.1319444h42.9930555"/><path d="m112.201389 8.38888889-7.340278 7.34027781"/><path d="m26.2152778 49.2847222-7.3402778 7.3402778"/><path d="m126.881944 8.38888889-19.923611 19.92361111"/><path d="m53.4791667 27.2638889h8.3888889v-7.3402778h-8.3888889z"/><path d="m69.2083333 27.2638889h8.3888889v-7.3402778h-8.3888889z"/><path d="m84.9375 27.2638889h8.3888889v-7.3402778h-8.3888889z"/><path d="m53.4791667 42.9930556h8.3888889v-7.3402778h-8.3888889z"/><path d="m69.2083333 42.9930556h8.3888889v-7.3402778h-8.3888889z"/><path d="m84.9375 42.9930556h8.3888889v-7.3402778h-8.3888889z"/><path d="m53.4791667 58.7222222h8.3888889v-7.3402778h-8.3888889z"/><path d="m69.2083333 58.7222222h8.3888889v-7.3402778h-8.3888889z"/><path d="m84.9375 58.7222222h8.3888889v-7.3402778h-8.3888889z"/><path d="m53.4791667 74.4513889h8.3888889v-7.3402778h-8.3888889z"/><path d="m73.4027778 66.0625v8.3888889"/><path d="m77.5972222 70.2569444h-8.3888889"/><path d="m93.3263889 70.2569444h-9.4375"/></g></svg>