<svg height="86" viewBox="0 0 87 86" width="87" xmlns="http://www.w3.org/2000/svg"><g style="stroke:#fff;stroke-width:1.5;fill:none;fill-rule:evenodd;stroke-linecap:round;stroke-linejoin:round" transform="translate(1 1)"><path d="m2.20779221 4.41558442h16.48365929c2.716022 0 4.9132181 2.14088941 4.9132181 4.78050874v3.68877684c0 2.6396193 2.2003216 4.7774677 4.9100927 4.7774677h18.9527702"/><path d="m48.5714286 18.7662338c0 3.0483405 2.4711399 5.5194805 5.5194805 5.5194805 3.0483405 0 5.5194805-2.47114 5.5194805-5.5194805 0-3.0483406-2.47114-5.5194806-5.5194805-5.5194806-3.0483406 0-5.5194805 2.47114-5.5194805 5.5194806z"/><path d="m30.9090909 83.8961039v-13.2467533"/><path d="m30.9090909 69.5454545c-3.0483405 0-5.5194805-2.4711399-5.5194805-5.5194805 0-3.0483405 2.47114-5.5194805 5.5194805-5.5194805 3.0483406 0 5.5194805 2.47114 5.5194805 5.5194805 0 3.0483406-2.4711399 5.5194805-5.5194805 5.5194805z"/><path d="m83.8961039 82.7922078v-39.1714275c0-2.7553804-2.2512527-4.9844167-5.0308933-4.9844167h-2.6963794"/><path d="m73.961039 38.6363636c0-3.0483405-2.47114-5.5194805-5.5194806-5.5194805-3.0483405 0-5.5194805 2.47114-5.5194805 5.5194805 0 3.0483406 2.47114 5.5194806 5.5194805 5.5194806 3.0483406 0 5.5194806-2.47114 5.5194806-5.5194806z"/><path d="m3.31168831 43.0519481v30.3661621c0 2.7379067 2.25445504 4.9585132 5.03089327 4.9585132h2.69637942"/><path d="m11.038961 78.3766234c0 3.0483405 2.47114 5.5194805 5.5194806 5.5194805 3.0483405 0 5.5194805-2.47114 5.5194805-5.5194805 0-3.0483406-2.47114-5.5194805-5.5194805-5.5194805-3.0483406 0-5.5194806 2.4711399-5.5194806 5.5194805z"/><path d="m65.1298701 66.2337662h-16.004912c-2.7455066 0-4.9691139 2.2342392-4.9691139 4.9857809v1.6375958"/><path d="m44.1558442 72.8571429c-3.0483406 0-5.5194806 2.4711399-5.5194806 5.5194805 0 3.0483405 2.47114 5.5194805 5.5194806 5.5194805 3.0483405 0 5.5194805-2.47114 5.5194805-5.5194805 0-3.0483406-2.47114-5.5194805-5.5194805-5.5194805z"/><path d="m69.5454545 22.0779221v-11.5536598c0-2.76663827-2.2195905-5.00478178-4.9601377-5.00478178h-16.0138882"/><path d="m40.8441558 0c-3.0483405 0-5.5194805 2.47113997-5.5194805 5.51948052s2.47114 5.51948048 5.5194805 5.51948048c3.0483406 0 5.5194806-2.47113993 5.5194806-5.51948048s-2.47114-5.51948052-5.5194806-5.51948052z"/><path d="m34.2723669 43.0519481-.0515877 7.1023048c0 2.7832057 2.2698587 5.0405523 5.0684912 5.0405523h12.5938465"/><path d="m51.8831169 54.0909091c0 3.0483405 2.4704672 5.5194805 5.5209832 5.5194805 3.0475106 0 5.5179778-2.47114 5.5179778-5.5194805 0-3.0483406-2.4704672-5.5194805-5.5179778-5.5194805-3.050516 0-5.5209832 2.4711399-5.5209832 5.5194805z"/><path d="m65.1298701 65.1298701c0 3.0483406 2.47114 5.5194805 5.5194805 5.5194805 3.0483406 0 5.5194806-2.4711399 5.5194806-5.5194805 0-3.0483405-2.47114-5.5194805-5.5194806-5.5194805-3.0483405 0-5.5194805 2.47114-5.5194805 5.5194805z"/><path d="m58.5064935 43.0519481v-10.4511636c0-2.6974755 2.2283666-4.8852897 4.9726761-4.8852897h12.1262393c2.7506401 0 4.9790067-2.1878142 4.9790067-4.8821819v-10.6904558"/><path d="m79.4805195 11.038961c3.0513468 0 5.5194805-2.47113993 5.5194805-5.51948048s-2.4681337-5.51948052-5.5194805-5.51948052c-3.0483406 0-5.5194805 2.47113997-5.5194805 5.51948052s2.4711399 5.51948048 5.5194805 5.51948048z"/><path d="m2.20779221 34.2207792h34.22077919"/><path d="m36.4285714 34.2207792c0 3.0483406 2.47114 5.5194805 5.5194805 5.5194805 3.0483406 0 5.5194806-2.4711399 5.5194806-5.5194805 0-3.0483405-2.47114-5.5194805-5.5194806-5.5194805-3.0483405 0-5.5194805 2.47114-5.5194805 5.5194805z"/><path d="m15.4545455 43.0519481v7.7272727"/><path d="m15.4545455 50.7792208c-3.0483406 0-5.51948056 2.47114-5.51948056 5.5194805s2.47113996 5.5194805 5.51948056 5.5194805c3.0483405 0 5.5194805-2.47114 5.5194805-5.5194805s-2.47114-5.5194805-5.5194805-5.5194805z"/><path d="m37.5324675 24.2857143h-24.2857143"/><path d="m11.038961 23.1818182c0-3.0483406-2.47113993-5.5194805-5.51948048-5.5194805s-5.51948052 2.4711399-5.51948052 5.5194805c0 3.0483405 2.47113997 5.5194805 5.51948052 5.5194805s5.51948048-2.47114 5.51948048-5.5194805z"/></g></svg>