<svg height="68" viewBox="0 0 31 68" width="31" xmlns="http://www.w3.org/2000/svg"><g fill="none" fill-rule="evenodd" stroke="#0086ff" stroke-width="1.5" transform="translate(1 1)"><path d="m17.1431429 44.398v-38.68285714c0-3.15571429-2.5585715-5.71428572-5.7142858-5.71428572-3.15571424 0-5.71428567 2.55857143-5.71428567 5.71428572v38.68285714c-3.41428572 1.9785714-5.71428572 5.6614286-5.71428572 9.8885714 0 6.3114286 5.11571429 11.4285715 11.42857139 11.4285715 6.3114286 0 11.4285715-5.1171429 11.4285715-11.4285715 0-4.2271428-2.3014286-7.91-5.7142857-9.8885714z"/><path d="m22.8574286 7.14342857h7.1428571"/><path d="m22.8574286 14.2862857h7.1428571"/><path d="m22.8574286 21.4291429h7.1428571"/><path d="m22.8574286 28.572h7.1428571"/><path d="m22.8574286 35.7148571h7.1428571"/><path d="m11.4288571 14.2862857v41.4285714"/></g></svg>