<svg height="67" viewBox="0 0 52 67" width="52" xmlns="http://www.w3.org/2000/svg"><g fill="none" fill-rule="evenodd" stroke="#0086ff" stroke-width="1.5" transform="translate(2 1)"><path d="m43.8788312 8.86274351h5.8441558"/><path d="m43.8788312 17.6289773h5.8441558"/><path d="m43.8788312 26.395211h5.8441558"/><path d="m43.8788312 35.1614448h5.8441558"/><path d="m39.4957143 48.0311526v-15.7923701-27.75974029c0-2.42094156-1.9621753-4.38311689-4.3831169-4.38311689-2.4180195 0-4.3831169 1.96217533-4.3831169 4.38311689v27.75974029 15.7923701c-2.6167208 1.5165584-4.3831169 4.3422078-4.3831169 7.5842532 0 4.8418832 3.9272728 8.7662338 8.7662338 8.7662338 4.8418831 0 8.7662338-3.9243506 8.7662338-8.7662338 0-3.2420454-1.7649351-6.0676948-4.3831169-7.5842532z"/><path d="m14.6580519 24.9341721v-11.6883117h5.8441559l-10.2272727-10.22727274-10.22727276 10.22727274h5.84415584v11.6883117"/><path d="m14.6580519 27.85625v11.6883117h5.8441559l-10.2272727 10.2272727-10.22727276-10.2272727h5.84415584v-11.6883117"/></g></svg>