<svg height="67" viewBox="0 0 65 67" width="65" xmlns="http://www.w3.org/2000/svg"><g fill="none" fill-rule="evenodd" transform="translate(2 2)"><g fill="#e0053b" transform="translate(42.666667 37.389664)"><path d="m2.17283951 24.7780712h15.20987649v-13.0567082h-15.20987649zm-.02135239-15.43065513v-1.37836806c0-4.39436076 3.43145119-7.96904801 7.64973197-7.96904801 4.21828081 0 7.64973201 3.57468725 7.64973201 7.96904801v1.37836806h1.0181847c.5997037 0 1.0864198.53176411 1.0864198 1.18697343v15.4306551c0 .6552094-.4867161 1.1869735-1.0864198 1.1869735h-17.38271605c-.5997037 0-1.08641975-.5317641-1.08641975-1.1869735v-15.4306551c0-.65520932.48671605-1.18697343 1.08641975-1.18697343zm2.1856377 0h10.92818848v-1.37836806c0-3.13752805-2.4522855-5.69217715-5.46409421-5.69217715-3.01180876 0-5.46409427 2.5546491-5.46409427 5.69217715z"/><path d="m8.80106251 18.3115084v1.9394815c0 .5507618.44632157.9977568.99625351.9977568.54993198 0 .99625348-.446995.99625348-.9977568v-1.9650289c.5036853-.3316613.836422-.9027139.836422-1.5511256 0-1.0258197-.8297917-1.8550085-1.85221372-1.8550085-1.02427421 0-1.85221376.8291888-1.85221376 1.8550085 0 .6653829.34960041 1.2493043.87549849 1.576673z"/></g><path d="m43.0227895 36.4564732c-2.9375511-2.2344167-6.3505827-3.8719167-10.0578636-4.7309765 5.8689505-2.5243802 9.990794-8.3743109 9.990794-15.1695958 0-9.09569792-7.3849611-16.49763827-16.4597944-16.49763827s-16.4597944 7.40194035-16.4597944 16.49763827c0 6.9288316 4.2854475 12.8747862 10.3388253 15.3145583-11.49422447 2.9472174-20.01883357 13.4173388-20.01883357 25.8425986 0 1.635803 1.32456279 2.9634112 2.95661338 2.9634112h33.84003219" stroke="#e0053b" stroke-linecap="round" stroke-linejoin="round" stroke-width="3"/></g></svg>