<svg height="65" viewBox="0 0 72 65" width="72" xmlns="http://www.w3.org/2000/svg"><g fill="none" fill-rule="evenodd"><g fill="#dee1e5" transform=""><path d="m19.6796218 59.1347706c-9.3765655-5.7475081-14.95981004-15.8256746-14.95981004-26.9690242 0-11.131469 5.58324454-21.2106538 14.95981004-26.95714357 1.1135266-.6883975 1.47667-2.16566865.8009518-3.30519054-.4255905-.71351654-1.2024458-1.16430149-2.0156154-1.16430149-.4255905 0-.8515204.12491631-1.2143243.34996934-10.80334572 6.62429839-17.25066784 18.24287306-17.25066784 31.07666626 0 12.8456738 6.44732212 24.4642485 17.25066784 31.0885468.3628039.2250531.7887338.3370704 1.2143243.3370704.8264057 0 1.5900249-.424987 2.0156154-1.1649804.3251321-.5499033.4255904-1.1880627.2623456-1.8143415-.1500088-.6262788-.52537-1.1514025-1.0632974-1.4772711"/><path d="m53.8535514 1.08941959c-.3750219-.22505303-.788055-.35030879-1.2143243-.35030879-.8257269 0-1.6022428.45078495-2.0278333 1.16362259-.6631609 1.14020079-.3003569 2.61747194.8009518 3.30586944 9.3765655 5.74716867 14.9713492 15.82635347 14.9713492 26.95714357 0 11.1433496-5.5947837 21.2215161-14.9713492 26.9690242-.5379274.3251897-.9129493.8506529-1.0639762 1.4772711-.1496694.6255999-.0621077 1.2644382.2630244 1.8143415.4384872.7399934 1.1892097 1.1649804 2.0278333 1.1649804.4262693 0 .8393024-.1120173 1.2143243-.3374098 10.7911278-6.6236195 17.2381105-18.2425336 17.2381105-31.0882074 0-12.8341326-6.4469827-24.45304676-17.2381105-31.07632681"/><path d="m51.149423 57.2694442c-.5002555-.7396539-1.6022429-.951808-2.3529655-.4385649-3.9059972 2.6792512-8.4873733 4.0937248-13.2442121 4.0937248s-9.3388937-1.4144736-13.2564301-4.0937248c-.7514013-.5132431-1.8411708-.301089-2.3536442.4385649-.262685.3750884-.3509255.8262127-.2755817 1.2773371.0872223.4501061.33735.837754.7130507 1.1015039 4.4815965 3.0679175 9.7268122 4.6819856 15.1726053 4.6819856 5.4332357 0 10.6781121-1.6140681 15.1590298-4.6819856.3757007-.2637499.6387251-.6513978.7144082-1.1015039.0868829-.4511244-.013236-.9022487-.2762604-1.2773371"/><path d="m21.3439045 7.60054651c.33735 0 .6635003-.10013671.9519787-.28785063 3.9053185-2.60457297 8.4995912-3.98170741 13.25643-3.98170741 4.7568389 0 9.3378755 1.37713444 13.2438728 3.98170741.7517407.50068359 1.8411709.28785063 2.3533048-.42668424.2630244-.36184997.3631434-.81365326.2759211-1.25119979-.0750043-.43822543-.3380288-.82655222-.7140688-1.07672429-4.4809177-2.98034024-9.7257941-4.55808756-15.1590299-4.55808756-5.445793 0-10.6910088 1.57774732-15.1729446 4.55808756-.3750219.25017207-.637707.63849886-.7127113 1.07672429-.0756832.43754653.0128967.88934982.2752423 1.25119979.313593.45112439.8386236.71453487 1.4020049.71453487"/></g><g fill="#df053b" transform="translate(20 9)"><g fill-opacity=".3"><path d="m12 17.9488704-1.051825-2.9488704c-3.03125627 1.1462545-5.5882234 3.5243757-6.948175 6.7364249l2.78927203 1.2635751c.99858843-2.3606817 2.88606574-4.1712247 5.21072797-5.0511296"/><path d="m19 34.3387846.9319309 2.6612154c3.0196468-.9299414 5.6185752-2.9707248 7.0680691-5.7902281l-2.6989482-1.2097719c-1.0637031 2.0704623-2.9847192 3.626489-5.3010518 4.3387846"/><path d="m24.0495442 23 2.9504558-1.0520371c-1.1478399-3.0318677-3.5259612-5.5893506-6.7380103-6.9479629l-1.2619897 2.7882211c2.3590963.9987898 4.1696393 2.8882614 5.0495442 5.2117789"/><path d="m6.90609037 30-2.90609037.9751881c1.18978389 2.6564979 3.5913556 4.874517 6.7960707 6.0248119l1.2039293-2.4799675c-2.35442043-.8456375-4.18231827-2.4828147-5.09390963-4.5200325"/></g><path d="m15.5 37.962963c-6.83705 0-12.4-5.449963-12.4-12.1481482 0-5.087037 3.21005-9.4467037 7.74845-11.2537407h.00155c1.4384-.5724815 3.00545-.8944074 4.65-.8944074 1.6461 0 3.2116.3219259 4.65.8944074h.00155c4.5384 1.807037 7.74845 6.1667037 7.74845 11.2537407 0 6.6981852-5.56295 12.1481482-12.4 12.1481482zm-4.65-29.7462593c0-2.85633333 2.0863-5.17966666 4.65-5.17966666s4.65 2.32333333 4.65 5.17966666v3.1099259c-1.46785-.451-3.03025-.697-4.65-.697s-3.18215.246-4.65.697zm12.4 4.4614074v-4.4614074c0-4.53125926-3.47665-8.2167037-7.75-8.2167037s-7.75 3.68544444-7.75 8.2167037v4.4614074c-4.6283 2.627037-7.75 7.5197037-7.75 13.1367037 0 8.3852593 6.93935 15.1851852 15.5 15.1851852 8.5591 0 15.5-6.7999259 15.5-15.1851852 0-5.617-3.1217-10.5096667-7.75-13.1367037z"/><path d="m13.5 25.598c-.897-.519-1.5-1.488-1.5-2.598 0-1.6575 1.344-3 3-3s3 1.3425 3 3c0 1.11-.603 2.079-1.5 2.598v4.902c0 .828-.666 1.5-1.5 1.5-.828 0-1.5-.666-1.5-1.5z"/></g></g></svg>