<svg height="67" viewBox="0 0 88 67" width="88" xmlns="http://www.w3.org/2000/svg" xmlns:xlink="http://www.w3.org/1999/xlink"><filter id="a" height="637.3%" width="221.2%" x="-60.6%" y="-268.7%"><feGaussianBlur in="SourceGraphic" stdDeviation="13.0675551"/></filter><mask id="b" fill="#fff"><path d="m0 0h87.555556v25.068364h-87.555556z" fill="none"/></mask><g fill="none" fill-rule="evenodd"><g transform="translate(10.555556)"><path d="m0 0h67v67h-67z" fill="#fff"/><g fill="#dee1e5"><path d="m3.7037037 19.9334704h16.2222222v-16.22868891h-16.2222222zm17.5740741 2.7047815h-18.92592595c-.74622222 0-1.35185185-.6058711-1.35185185-1.3523907v-18.93347046c0-.74651969.60562963-1.35239074 1.35185185-1.35239074h18.92592595c.7462222 0 1.3518518.60587105 1.3518518 1.35239074v18.93347046c0 .7465196-.6056296 1.3523907-1.3518518 1.3523907z"/><path d="m8.92464879 14.3373708h5.40740741v-5.40956299h-5.40740741zm6.75925921 2.7047815h-8.11111107c-.74622222 0-1.35185185-.6058711-1.35185185-1.3523908v-8.11434444c0-.74651969.60562963-1.35239074 1.35185185-1.35239074h8.11111107c.7462223 0 1.3518519.60587105 1.3518519 1.35239074v8.11434444c0 .7465197-.6056296 1.3523908-1.3518519 1.3523908z"/><path d="m3.7037037 62.8369009h16.2222222v-16.2286889h-16.2222222zm17.5740741 2.7047815h-18.92592595c-.74622222 0-1.35185185-.6058711-1.35185185-1.3523908v-18.9334704c0-.7465197.60562963-1.3523907 1.35185185-1.3523907h18.92592595c.7462222 0 1.3518518.605871 1.3518518 1.3523907v18.9334704c0 .7465197-.6056296 1.3523908-1.3518518 1.3523908z"/><path d="m8.92464879 57.6138746h5.40740741v-5.409563h-5.40740741zm6.75925921 2.7047815h-8.11111107c-.74622222 0-1.35185185-.6058711-1.35185185-1.3523908v-8.1143444c0-.7465197.60562963-1.3523908 1.35185185-1.3523908h8.11111107c.7462223 0 1.3518519.6058711 1.3518519 1.3523908v8.1143444c0 .7465197-.6056296 1.3523908-1.3518519 1.3523908z"/><path d="m46.5900383 52.0177749h5.4074074v-5.4095629h-5.4074074zm6.7592593 2.7047815h-8.1111111c-.7462223 0-1.3518519-.605871-1.3518519-1.3523907v-8.1143445c0-.7465197.6056296-1.3523907 1.3518519-1.3523907h8.1111111c.7462222 0 1.3518518.605871 1.3518518 1.3523907v8.1143445c0 .7465197-.6056296 1.3523907-1.3518518 1.3523907z"/><path d="m46.5900383 19.9334704h16.2222222v-16.22868891h-16.2222222zm17.5740741 2.7047815h-18.9259259c-.7462223 0-1.3518519-.6058711-1.3518519-1.3523907v-18.93347046c0-.74651969.6056296-1.35239074 1.3518519-1.35239074h18.9259259c.7462222 0 1.3518518.60587105 1.3518518 1.35239074v18.93347046c0 .7465196-.6056296 1.3523907-1.3518518 1.3523907z"/><path d="m52.183908 14.3373708h5.4074075v-5.40956299h-5.4074075zm6.7592593 2.7047815h-8.1111111c-.7462222 0-1.3518519-.6058711-1.3518519-1.3523908v-8.11434444c0-.74651969.6056297-1.35239074 1.3518519-1.35239074h8.1111111c.7462222 0 1.3518519.60587105 1.3518519 1.35239074v8.11434444c0 .7465197-.6056297 1.3523908-1.3518519 1.3523908z"/><path d="m35.8477366 27.8612782h-9.2816801c-.7319268 0-1.3259543-.5849789-1.3259543-1.3057566 0-.7207776.5940275-1.3057565 1.3259543-1.3057565h9.2816801c.7319268 0 1.3259543.5849789 1.3259543 1.3057565 0 .7207777-.5940275 1.3057566-1.3259543 1.3057566"/><path d="m35.8477366 41.2919173h-9.2816801c-.7319268 0-1.3259543-.605871-1.3259543-1.3523907v-8.1143445c0-.7465197.5940275-1.3523907 1.3259543-1.3523907s1.3259543.605871 1.3259543 1.3523907v6.7619537h7.9557258c.7319268 0 1.3259543.6058711 1.3259543 1.3523908s-.5940275 1.3523907-1.3259543 1.3523907"/><path d="m21.2777778 33.4573778c-.7462222 0-1.3518519-.612835-1.3518519-1.3679354v-4.1038064h-17.57407405c-.74622222 0-1.35185185-.6128351-1.35185185-1.3679355s.60562963-1.3679354 1.35185185-1.3679354h18.92592595c.7462222 0 1.3518518.612835 1.3518518 1.3679354v5.4717419c0 .7551004-.6056296 1.3679354-1.3518518 1.3679354"/><path d="m60.1458493 41.2919173c-.7410759 0-1.3425287-.598907-1.3425287-1.336846v-13.3684602c0-.737939.6014528-1.336846 1.3425287-1.336846h4.0275862c.7410759 0 1.3425287.598907 1.3425287 1.336846s-.6014528 1.336846-1.3425287 1.336846h-2.6850575v12.0316142c0 .737939-.6014528 1.336846-1.3425287 1.336846"/><path d="m54.8876117 41.2919173c-.7204904 0-1.3052362-.605871-1.3052362-1.3523907v-8.1143445c0-.7465197.5847458-1.3523907 1.3052362-1.3523907.7204905 0 1.3052363.605871 1.3052363 1.3523907v8.1143445c0 .7465197-.5847458 1.3523907-1.3052363 1.3523907"/><path d="m41.4934014 33.4573778c-.7376449 0-1.3363133-.612835-1.3363133-1.3679354v-5.4717419c0-.7551004.5986684-1.3679354 1.3363133-1.3679354h13.3631333c.737645 0 1.3363133.612835 1.3363133 1.3679354s-.5986683 1.3679355-1.3363133 1.3679355h-12.0268199v4.1038064c0 .7551004-.5986684 1.3679354-1.3363134 1.3679354"/><path d="m40.2813963 19.6536654h-5.4695615c-.7547995 0-1.3673904-.6016926-1.3673904-1.3430639v-5.3722556c0-.7413713.6125909-1.3430639 1.3673904-1.3430639s1.3673904.6016926 1.3673904 1.3430639v4.0291917h2.7347808v-9.40144737c0-.74137128.6125908-1.34306391 1.3673903-1.34306391s1.3673904.60169263 1.3673904 1.34306391v10.74451127c0 .7413713-.6125909 1.3430639-1.3673904 1.3430639"/><path d="m26.5453384 22.6382519c-.7204904 0-1.3052362-.6058711-1.3052362-1.3523907v-8.1143445c0-.7465197.5847458-1.3523908 1.3052362-1.3523908.7204905 0 1.3052363.6058711 1.3052363 1.3523908v8.1143445c0 .7465196-.5847458 1.3523907-1.3052363 1.3523907"/><path d="m39.9240102 3.61151316h-8.1111111c-.7462222 0-1.3518518-.58497895-1.3518518-1.30575658s.6056296-1.30575658 1.3518518-1.30575658h8.1111111c.7462222 0 1.3518519.58497895 1.3518519 1.30575658s-.6056297 1.30575658-1.3518519 1.30575658"/><path d="m32.0770541 9.20761279h-5.4695615c-.7547995 0-1.3673904-.61283509-1.3673904-1.36793547v-5.47174186c0-.75510037.6125909-1.36793546 1.3673904-1.36793546.7547994 0 1.3673903.61283509 1.3673903 1.36793546v4.1038064h4.1021712c.7547995 0 1.3673903.61283509 1.3673903 1.36793546 0 .75510038-.6125908 1.36793547-1.3673903 1.36793547"/><path d="m15.683908 36.068891h-8.11111107c-.74622222 0-1.35185185-.5849789-1.35185185-1.3057566 0-.7207776.60562963-1.3057566 1.35185185-1.3057566h8.11111107c.7462223 0 1.3518519.584979 1.3518519 1.3057566 0 .7207777-.6056296 1.3057566-1.3518519 1.3057566"/><path d="m7.83695189 41.2919173h-5.46956151c-.75479949 0-1.36739038-.605871-1.36739038-1.3523907v-8.1143445c0-.7465197.61259089-1.3523907 1.36739038-1.3523907s1.36739038.605871 1.36739038 1.3523907v6.7619537h4.10217113c.75479949 0 1.36739038.6058711 1.36739038 1.3523908s-.61259089 1.3523907-1.36739038 1.3523907"/><path d="m59.1296296 65.5416824h-24.3333333c-.7462222 0-1.3518519-.6058711-1.3518519-1.3523908s.6056297-1.3523907 1.3518519-1.3523907h22.9814815v-17.5810797c0-.7465197.6056296-1.3523907 1.3518518-1.3523907h5.4074074c.7462223 0 1.3518519.605871 1.3518519 1.3523907v8.1143445c0 .7465197-.6056296 1.3523907-1.3518519 1.3523907-.7462222 0-1.3518518-.605871-1.3518518-1.3523907v-6.7619537h-2.7037037v17.5810796c0 .7465197-.6056296 1.3523908-1.3518519 1.3523908"/><path d="m34.7030651 60.3186561h-8.1111111c-.7462222 0-1.3518518-.6016927-1.3518518-1.3430639v-10.7445113c0-.7413713.6056296-1.3430639 1.3518518-1.3430639s1.3518519.6016926 1.3518519 1.3430639v9.4014473h6.7592592c.7462223 0 1.3518519.6016927 1.3518519 1.343064 0 .7413712-.6056296 1.3430639-1.3518519 1.3430639"/><path d="m53.3648361 59.9455828h-13.3631332c-.737645 0-1.3363134-.5969173-1.3363134-1.3324047v-6.6620234c0-.7354874.5986684-1.3324047 1.3363134-1.3324047.7376449 0 1.3363133.5969173 1.3363133 1.3324047v5.3296187h12.0268199c.737645 0 1.3363133.5969173 1.3363133 1.3324047s-.5986683 1.3324047-1.3363133 1.3324047"/><path d="m33.2846196 54.7225564c-.7351943 0-1.3318738-.605871-1.3318738-1.3523907v-8.1143445c0-.7465197.5966795-1.3523907 1.3318738-1.3523907h6.6593687c.7351943 0 1.3318738.605871 1.3318738 1.3523907s-.5966795 1.3523908-1.3318738 1.3523908h-5.327495v6.7619537c0 .7465197-.5966794 1.3523907-1.3318737 1.3523907"/><path d="m21.2622393 41.2919173h-5.4695616c-.7547995 0-1.3673903-.5849789-1.3673903-1.3057566 0-.7207776.6125908-1.3057565 1.3673903-1.3057565h5.4695616c.7547994 0 1.3673903.5849789 1.3673903 1.3057565 0 .7207777-.6125909 1.3057566-1.3673903 1.3057566"/><path d="m36.1792252 33.0843045h-5.4695615c-.7547995 0-1.3673904-.5849789-1.3673904-1.3057565 0-.7207777.6125909-1.3057566 1.3673904-1.3057566h5.4695615c.7547995 0 1.3673904.5849789 1.3673904 1.3057566 0 .7207776-.6125909 1.3057565-1.3673904 1.3057565"/><path d="m49.6200511 41.2919173h-8.1111111c-.7462222 0-1.3518519-.5849789-1.3518519-1.3057566 0-.7207776.6056297-1.3057565 1.3518519-1.3057565h8.1111111c.7462222 0 1.3518518.5849789 1.3518518 1.3057565 0 .7207777-.6056296 1.3057566-1.3518518 1.3057566"/><path d="m45.1915709 41.6649906c-.7204904 0-1.3052363-.6128351-1.3052363-1.3679354v-5.4717419c0-.7551004.5847459-1.3679355 1.3052363-1.3679355s1.3052363.6128351 1.3052363 1.3679355v5.4717419c0 .7551003-.5847459 1.3679354-1.3052363 1.3679354"/></g></g><g transform="translate(0 32.603169)"><path d="m4.28463357 1.55790268h79.38072433" stroke="#e0053b" stroke-linecap="round" stroke-width="7"/><path d="m10.8765957-8.60555765h64.6789599v7.25407967.04685873c0 4.0267601-3.2740289 7.29109414-7.2937716 7.29109414h-50.0914167c-4.0282388 0-7.2937716-3.27473693-7.2937716-7.29601627z" fill="#e0053b" filter="url(#a)" mask="url(#b)" opacity=".69986" transform="translate(0 .748309)"/></g></g></svg>