<svg height="55" viewBox="0 0 71 55" width="71" xmlns="http://www.w3.org/2000/svg"><g fill="none" fill-rule="evenodd" transform=""><g fill="#e0053b"><ellipse cx="5.111111" cy="5.118823" rx="5.111111" ry="5.118823"/><path d="m5.11111111 28.4873633c2.82278872 0 5.11111109-2.2917752 5.11111109-5.1188231 0-2.827048-2.28832237-5.1188231-5.11111109-5.1188231s-5.11111111 2.2917751-5.11111111 5.1188231c0 2.8270479 2.28832239 5.1188231 5.11111111 5.1188231z"/><ellipse cx="5.111111" cy="42.508487" rx="5.111111" ry="5.118823"/><ellipse cx="25.111111" cy="42.508487" rx="5.111111" ry="5.118823"/></g><ellipse cx="44.666667" cy="42.953602" fill="#fff" rx="5.111111" ry="5.118823"/><ellipse cx="25.111111" cy="23.36854" fill="#e0053b" rx="5.111111" ry="5.118823"/><ellipse cx="45.111111" cy="24.25877" fill="#e0053b" rx="6" ry="6.009053" stroke="#e0053b" stroke-opacity=".128" stroke-width="22"/><ellipse cx="25.111111" cy="5.118823" fill="#e0053b" rx="5.111111" ry="5.118823"/><ellipse cx="45.111111" cy="5.118823" fill="#e0053b" rx="5.111111" ry="5.118823"/><path d="m64.4751224 50.9479218c-.2984746 1.6246544-1.8932429 2.941697-3.5340883 2.941697h-11.5433854c-1.1012743 0-2.500054-.750748-3.1087636-1.6538488l-6.7824966-10.0627254c-.7061632-1.0694222-1.0659067-2.7902881-.3940048-4.0197471.4263627-.7794732 1.1858212-1.2087483 2.1375237-1.2087483 2.0195125 0 3.8562982.8058322 6.6619169 4.5168024v-17.6963009c0-2.0767124 1.7073542-3.765571 3.8068098-3.765571 2.0994555 0 3.8068097 1.6888586 3.8068097 3.765571v10.6226758l7.7639884 2.6057751c2.4611024.7832388 3.2148508 3.5170434 2.6818974 5.8102761z" fill="#23202b" stroke="#fff" stroke-width="2" transform="matrix(.90630779 -.42261826 .42261826 .90630779 -10.699805 25.625396)"/></g></svg>