<svg height="94" viewBox="0 0 117 94" width="117" xmlns="http://www.w3.org/2000/svg"><g fill="#0086ff" fill-rule="evenodd" transform=""><path d="m58.514862 25.0723431c-6.9957545 6.677962-7.3330975 18.5165899-.010742 25.6466572 7.0912893-6.7720561 7.234363-18.6834653.010742-25.6466572zm-21.8962155 28.6497335c2.3908846-3.7991353 3.4822214-9.3683737 1.705228-14.8013458-1.4711905-4.4992862-4.3274074-7.9032262-8.4340335-10.2984318-5.0094072 8.1825611-2.6802317 19.7686086 6.7288055 25.0997776zm43.7707185-.0088426c9.4721176-5.2685907 11.7244996-17.099283 6.7381761-25.0653142-9.4510908 5.2538531-11.7352415 17.0639127-6.7381761 25.0653142zm36.610635-7.909348c-.044796.3747894-.059652.7557006-.13896 1.1232345-.299403 1.3889653-.565895 2.7883603-.942549 4.1573731-1.234639 4.4884031-2.523673 8.9622952-3.769969 13.4477508-.904381 3.2552032-1.774479 6.5197025-2.65989 9.7798938-.01897.0693803-.040683.1376268-.072451.2437378-.802904-.2142625-1.598266-.4262577-2.416026-.6446014.177814-.660246.348542-1.2971385.521099-1.9335776 1.407653-5.1924085 2.803422-10.388218 4.229588-15.5758651.607263-2.2088312 1.283777-4.3990703 1.919609-6.6004194.507843-1.7569527.846329-3.5386192.836273-5.3787829-.047767-8.8024486-6.300042-15.9774089-14.403131-17.7246121-3.5281608-.7606886-6.9863842-.5103756-10.3744421.7216906-.0683371.0247139-.1359886.052602-.2027258.0809436-.0249122.0106565-.0470818.0267545-.061252.0351436 3.3663454 6.2836736 3.7589981 12.7013463.7377665 19.1929339-2.2114712 4.7525469-5.8765343 8.0973095-10.680016 10.2288249-7.2798449-9.4953442-5.0884863-23.8087609 6.1823371-30.4091802-2.8548456-3.4567687-6.455457-5.6905406-10.8765709-6.5172085-5.2729279-.986061-10.0642963.2163032-14.4097594 3.3259439 4.8277082 5.1654273 6.8039992 11.1951601 5.6470679 18.1272896-.9473489 5.6787504-4.0871991 9.8454196-7.5730773 12.6312859-4.6924054-3.9034324-7.431375-8.8292031-7.810086-14.9353449-.3784824-6.1020606 1.6931147-11.3416295 5.8897903-15.782192-7.4432596-5.8256733-18.9954308-4.7530002-25.2319349 3.150226 5.6907214 3.5009816 9.2133965 8.4718721 10.1570886 15.0838548.8017611 5.6175326-.6180052 10.7267301-3.9806938 15.3083204-10.769837-4.3648337-16.5339236-17.8411528-9.9219083-29.4292409-.6746861-.2115418-1.328574-.4604944-2.0034886-.6214747-6.4984249-1.5501724-12.284224-.17141-17.24197841 4.2927326-3.07219875 2.7661405-4.89695955 6.256239-5.59404378 10.3118091-.4667036 2.7153523-.27289133 5.3966947.51081418 8.0406263.64063183 2.1621242 1.27554986 4.3260623 1.88281307 6.4974826.73890928 2.6430246 1.44764966 5.2942116 2.16690345 7.942451.87604061 3.2252745 1.74979569 6.4510024 2.62423643 9.6765037.0210268.0775426.03885387.1555387.06468026.2602892-.80610362.2160764-1.59552294.4278449-2.41419693.6470955-.17415678-.6350786-.34465673-1.2515652-.5121855-1.8689587-1.40879579-5.1921817-2.80456411-10.3877645-4.23072987-15.5749582-.61480543-2.2351322-1.3054902-4.4491782-1.93652283-6.6800025-.45664731-1.6147912-.81615993-3.2484013-.88906808-4.9366539-.14535921-3.3644885.40910845-6.6051808 1.87709926-9.6420403 3.07974097-6.370739 8.12251685-10.3181575 15.11804275-11.7093902 4.0072058-.7967391 7.9257333-.3514359 11.7151289 1.1667672.2251239.0900129.3268297.0485208.4678464-.1278773 3.2442985-4.0601048 7.4153763-6.6634511 12.5527727-7.6043924 6.0970872-1.1168859 11.6314789.2727596 16.5784914 3.9743998.0511957.0383178.1014771.0773159.1684429.1283308.2820335-.2065537.5626956-.4187756.8504428-.6217015 2.9483234-2.0789133 6.2106776-3.3903359 9.8151744-3.7143372 7.6133026-.6847331 13.8228374 1.9947955 18.6539739 7.8515312.1407882.1702763.2408941.2031526.4497908.117901 2.338089-.9545452 4.7730842-1.474897 7.3013287-1.5225109 5.8587068-.1101922 10.9284518 1.8317745 15.1402128 5.8719268 3.426226 3.2864923 5.432228 7.3164416 6.110571 11.9950735.071309.4901964.119305.983567.178271 1.4755773z"/><path d="m57.9359058 12.5064855c2.7760984-.0008777 5.0387545-2.2593648 5.0411681-5.03151339.0021942-2.79562652-2.2461996-5.05499126-5.0372185-5.06135443-2.787947-.00614375-5.0576246 2.25914532-5.0554304 5.04599505.0019748 2.79189637 2.2600231 5.04796987 5.0514808 5.04687277m7.4464471-5.05038349c0 4.17402109-3.3174067 7.45697879-7.5339955 7.45566229-4.0570707-.0013165-7.3790853-3.3612905-7.3777688-7.46202546.0008777-4.11653316 3.3476867-7.45171274 7.4754105-7.44973796 4.1119256.00175535 7.4363538 3.33517958 7.4363538 7.45610113"/><path d="m29.2425176 74.0982075c1.3587552-2.95098 2.6843073-5.8315409 4.010327-8.7118811.021278.0011038.0425561.0022075.0638341.0033113.7447316 3.6626765 1.4894632 7.3249116 2.2421448 11.0273231-.4171432 0-.7971083.007064-1.1761381-.0086092-.0507399-.0019868-.1262653-.112803-.1402948-.1823392-.3790298-1.8518679-.7515125-3.7052812-1.1253981-5.5582529-.0851122-.4225147-.1713935-.8448086-.3198722-1.2803474-1.1737999 2.4655517-2.3475997 4.9311035-3.5543689 7.4655291-1.2013911-2.5333219-2.3744895-5.0081451-3.582194-7.5549327-.1435683.7077231-.2712366 1.3381838-.398671 1.9686445-.3329664 1.6452464-.6694401 3.2898306-.9935211 4.9366222-.0325016.1644585-.0867489.2249438-.2649233.2187629-.3353046-.0116998-.6710768-.0033113-1.0622655-.0033113.7512786-3.695789 1.4969455-7.3644258 2.2428462-11.0330626.020109-.0011038.0406855-.0024283.0610283-.0033113 1.3222785 2.8825477 2.6443232 5.7653161 3.9974666 8.7158546"/><path d="m52.6284556 93.5965578c-.4722934-2.337586-.943651-4.6727449-1.4318512-7.0908689-1.21243 2.5445575-2.3914089 5.0191684-3.5986926 7.5531346-1.1953536-2.5194032-2.3661451-4.9865119-3.5369366-7.4538413-.0203514-.0004413-.0407028-.0011033-.0608203-.0015446-.0626918.2930257-.1288924.5856101-.1878413.8792978-.3981393 1.9735105-.7967465 3.9472416-1.1881019 5.9220759-.0308781.1571042-.0790665.2305813-.2633989.2235204-.3347458-.0132391-.6708951-.0039717-1.0666952-.0039717.7506634-3.6915061 1.4952447-7.3530034 2.239826-11.0145008.0205853-.0072815.0409367-.0143424.0615221-.0216239 1.3261173 2.8878919 2.6522346 5.7757837 4.0024461 8.7159701 1.3537204-2.9382005 2.6845162-5.826313 4.015078-8.7146462.0191818-.0002206.0385976-.0004413.0577794-.0008826.7450491 3.6592909 1.4898643 7.3185817 2.2409955 11.0078812z"/><path d="m83.8777281 68.2745554v8.1070557h-1.2894928v-10.9992582c3.0126508 2.8650916 5.9932416 5.6999611 9.0227789 8.5810525v-8.1166112h1.3007505v11.006147c-3.0136297-2.8617582-5.9951995-5.69285-9.0340366-8.5783858"/><path d="m67.7694128 87.7553571c.0018501 2.2626167 2.023963 4.1074582 4.5016526 4.1072484 2.4589577-.0004197 4.477833-1.8427432 4.4889334-4.0957077.0111003-2.2804524-2.0107813-4.1338971-4.5046589-4.1294906-2.4864774.0046163-4.4880084 1.8416941-4.4859271 4.1179499m4.4924023 5.1564076c-3.1832553.0002098-5.7326346-2.2949308-5.7324033-5.1608141.0002312-2.8373461 2.5963245-5.1689975 5.7490538-5.1627026 3.1481042.0060851 5.722228 2.3415135 5.7215343 5.1908201-.0006938 2.8367166-2.5674174 5.1326966-5.7381848 5.1326966"/><path d="m111.967191 84.7470731c-.294236.2627368-.56868.5076361-.827731.738895-.320625-.317089-.603866-.6536944-.944282-.9246156-2.252511-1.7929903-5.652498-.8811758-6.660553 1.7766217-1.002777 2.6439472.876111 5.0897924 3.429235 5.4960692 1.59015.2528738 3.401086-.6879005 3.976144-2.0618129.126887-.3032386.171748-.6373258.265208-.9986939h-3.139836v-1.0370971h4.31656c.205834 2.0655902-.647847 3.7855514-2.740265 4.7120556-3.34479 1.4809378-7.276293-.7611395-7.538863-4.276819-.245416-3.2837912 2.643067-5.9174555 6.078679-5.5489523 1.580254.1697716 2.794582.9235662 3.785704 2.1243493"/><path d="m58.4363562 87.1749947c.5746187-.0639592 1.1277736-.0899765 1.6664149-.1964305.463211-.0914941.7792411-.4238647.9070023-.9186266.1210154-.4687446.1171314-.9400909-.0155358-1.4079682-.1028222-.3627242-.3205273-.6250651-.6482092-.7638239-.613867-.2597391-1.2575791-.2224477-1.9096722-.2096558zm.0077678.9533163v3.6725552c.5474312 0 1.0774869.0199466 1.6050896-.008022.281279-.0149599.566442-.0860738.8356604-.1788688.4609624-.159139.8323898-.4550855.9848856-.967409.2945662-.9893069.0455852-2.0078832-1.128387-2.3547802-.7522579-.2222309-1.5188251-.1506834-2.2972486-.1634752zm2.8197408-.7412756c.9331679.3054862 1.5032894.9487634 1.728558 1.9153051.3939133 1.6874371-.4503327 3.0767596-2.0993721 3.4542269-.3730627.0852066-.7592081.1331218-1.1408564.1435287-.7917106.021681-1.5840345.0065043-2.3992531.0065043v-10.3134647c1.0368077.0370746 2.0774993-.117945 3.0905945.2126912 1.2140381.396113 1.8379216 1.4075346 1.7402098 2.7775609-.0529442.740842-.3315659 1.3472613-.9198807 1.8036476z"/><path d="m51.6891741 74.6032333c.6090658 0 1.1917887.0386901 1.7672446-.0071728 1.7213718-.1378061 2.9345073-1.0026805 3.531083-2.5363708.6183767-1.5893344.3447285-3.084552-.8636381-4.3634967-.8777179-.9292129-2.0431637-1.2059118-3.2999013-1.2276478-.3767488-.0067382-.7537247-.0010868-1.1347882-.0010868zm-1.2185859 1.0837557v-10.2524241c.0242991-.0160846.0388331-.0339081.05314-.0339081 1.3409894.0067381 2.6881104-.109984 4.0159284.1723663 2.009781.4273292 3.6071594 2.0870882 3.8858036 4.0418043.1896234 1.3298068.0436021 2.60723-.742597 3.7548894-.9621968 1.4043613-2.3288479 2.2044625-4.0831482 2.3066216-1.0289624.0595565-2.0649648.0106506-3.1291268.0106506z"/><path d="m94.0214988 87.3422483c.6343124.0333759 1.2475646.0197221 1.835586-.2102245.5233808-.2045896.8774448-.5918796.9429195-1.1733563.0417036-.3703853.0154303-.7609261-.0494188-1.1293608-.0744411-.4226164-.3523959-.7240827-.7321076-.8959466-.6361891-.2880293-1.3086604-.2758926-1.9969791-.2555204zm-.0187667 1.0792971v4.4756152h-1.0909674v-10.2641585c.0041704-.0036843.01689-.0231897.0296096-.0234064 1.006726-.0121367 2.0176225-.0916752 3.0110033.1612444 1.3947785.3549977 2.0655817 1.3012248 2.0084477 2.8252443-.0531721 1.4130556-.8839088 2.4121639-2.2019526 2.6501294-.0733984.0132203-.1457542.032509-.2552263.0574325 1.0453019 1.5313882 2.0778842 3.0445713 3.1434124 4.605651-.4677064 0-.880364.009536-1.291979-.0088858-.0731899-.0034676-.1576398-.1124809-.2101864-.191586-.915395-1.3744783-1.8278708-2.7509072-2.7368018-4.1299368-.0925821-.1404386-.1824535-.2485851-.4053595-.1573433z"/><path d="m41.1383273 72.5915755h3.7836617c-.6223691-1.4395493-1.233565-2.8543104-1.8704354-4.3273697-.6530359 1.4774201-1.2765936 2.8880499-1.9132263 4.3273697m1.943893-7.2092226c1.7142489 3.8570833 3.3954537 7.6402612 5.0942503 11.4633755-.4573866 0-.8719824.0105579-1.2846763-.0096399-.0760726-.0036723-.1759179-.1186618-.2134788-.2033547-.3867817-.8763072-.769522-1.7546802-1.1370479-2.6385617-.0801139-.1932558-.1835252-.2568328-.3967662-.2554557-1.416377.0091808-2.832754.0091808-4.2488933.0002295-.2160938-.0016066-.3140373.0690855-.3948644.2595871-.3706163.8728645-.7642921 1.7365482-1.1384743 2.6080356-.074884.1744352-.1614166.2566033-.3710917.2453568-.3582545-.0195092-.7186485-.0055085-1.1382365-.0055085 1.743727-3.8226552 3.4693867-7.6062921 5.2292791-11.464064"/><path d="m88.1944643 82.5882353h1.2600483c.0059101.0797837.0160756.1531676.0160756.2265515-.0021276 2.158639-.0113475 4.317278-.0063829 6.4757036.0035461 1.5056502-.7028375 2.6292347-2.2309711 3.2451049-1.5931455.6418959-3.1184423.4586495-4.4976396-.5217937-.9524831-.6773079-1.2860531-1.6161527-1.290072-2.6680599-.0082743-2.2098371-.0023641-4.4196741-.0014185-6.6292979 0-.0334921.0082743-.0669841.0158393-.1215954h1.2503556v.3165748c.0028369 2.1754917-.0089834 4.3511967.0153665 6.526475.0130023 1.1423572.5957451 1.8578503 1.7174955 2.2283964 1.0867621.3588132 2.3765976.0872501 3.1293169-.656402.5224591-.5162473.6184403-1.1532367.6200951-1.8111321.0049646-2.0989079.0016549-4.1976024.0018913-6.2965103z"/><path d="m18.2407631 82.5882353h1.2400499c.0080538.0626286.019187.1124323.019187.1620222-.001895 2.2561273-.0021319 4.5124684-.0090013 6.7685957-.0063957 2.1749024-2.0402196 3.3293642-3.784817 3.3894278-1.2521306.0429637-2.3427112-.3103644-3.2383423-1.1213305-.6587543-.5961477-.9664572-1.3340114-.9761691-2.1509625-.0277146-2.3243135-.017292-4.6488406-.0210821-6.9731541 0-.0164587.0099489-.0324899.0220296-.0690411h1.2338911c0 .1000348-.0002369.1987871 0 .2975395.0028425 2.1280912.0007106 4.2559688.0153969 6.3838463.0023688.3122882.0509285.6331264.1414155.9347271.2894634.9678583 1.0953181 1.4105338 2.1134145 1.6001297 1.1678024.2171697 2.5630066-.3657256 2.969724-1.3004527.184527-.4247205.2567744-.9124972.2626963-1.3731276.0265302-2.0849139.011607-4.1702552.011607-6.2555966z"/><path d="m38.8786787 86.7144702v1.0733912h-4.3586833v4.0455075h4.4800046v1.0783958h-5.7352941v-10.3235294h5.7317877v1.0588124h-4.4748618v3.0674225z"/><path d="m67.6764706 74.623988v1.0818944h-5.7352941v-10.3235295h5.726203v1.0509583h-4.4676738v3.0687805h4.3401659v1.0738336h-4.3422638v4.0480627z"/><path d="m30.6874114 82.5934954c-.5469711.8976931-1.0613224 1.7433837-1.5773283 2.5882077-.4380023.7172011-.8710408 1.437219-1.3215709 2.1481365-.108496.1709582-.1115689.2938141-.0016546.4682392 1.0112109 1.6034104 2.0106031 3.213321 3.0133045 4.8212816.0496387.0799539.0959681.1618578.1704261.2877472-.4833862 0-.9138245.0099672-1.3423718-.0091004-.07824-.0034669-.1720808-.1148389-.2214831-.1954428-.7637266-1.2443764-1.5213075-2.492003-2.2807794-3.7385463-.0494023-.0814705-.1032957-.1607744-.1777537-.2764799-.4309111.707234-.8426758 1.3823997-1.2539677 2.0577822-.4001824.6573983-.8043831 1.3128464-1.1967651 1.9741449-.0832039.1399733-.1782265.1971761-.3540893.1919758-.384818-.0117005-.7703451-.0036835-1.2022016-.0036835.0638211-.1128887.1068413-.1954427.1562436-.2747465 1.0064835-1.616411 2.0108395-3.2341221 3.0263052-4.8461995.1049503-.1666247.09715-.2849304-.0021274-.4459215-.9057878-1.4690705-1.8028297-2.9424747-2.7024718-4.4145788-.0579118-.0953379-.1144054-.1913258-.1983184-.3310825.4817316 0 .9133518-.0101839 1.3437901.0093171.0787128.0034668.1739718.1157055.222665.1973928.6793408 1.1388547 1.3518268 2.2809596 2.0262038 3.4221978.035929.0606696.074458.1200391.1314243.2116935.0638212-.0942545.1193692-.1681414.1656987-.2465785.666813-1.1254208 1.3359897-2.2495415 1.9950023-3.3786457.0907679-.1560075.1872088-.2305444.3900183-.2216607.3751266.0162508.7514351.0045503 1.1918012.0045503"/><path d="m4.58823529 92.9117647v-10.3235294h1.32205947v9.2506242h3.26617583v1.0729052z"/><path d="m76.8529412 75.7058824h1.1470588v-10.3235295h-1.1470588z"/></g></svg>