<svg height="101" viewBox="0 0 91 101" width="91" xmlns="http://www.w3.org/2000/svg"><g fill="#0086ff" transform="translate(1 1)"><path d="m30.7857143 72.2239024h2v25.4285714h-2z"/><path d="m56.2142857 84.9381881h2v6.3571429h-2z"/><path d="m58.2142857 99.7715214h-2v-4.2380952h2z"/><path d="m11.7142857 76.4619976h2v12.7142857h-2z"/><path d="m13.7142857 97.6524738h-2v-4.2380952h2z"/><path d="m75.2857143 76.4619976h2v12.7142857h-2z"/><path d="m77.2857143 97.6524738h-2v-4.2380952h2z"/><path d="m32.9088095-.99345238c7.0521363 0 12.5911905 5.70833643 12.5911905 12.84547618v54.9892857c0 4.8785655-2.6216684 9.2843467-6.8563886 11.7341848l-1.0015085-1.731179c3.6255272-2.0974125 5.8578971-5.8489675 5.8578971-10.0030058v-54.9892857c0-6.04581948-4.6573216-10.84547618-10.5911905-10.84547618-4.8663014 0-9.4159843 3.39311173-10.7594976 7.92967558l-.2051534.69272964-.7221093.02281051c-6.1968637.19575104-10.8113587 5.81807655-10.8113587 13.19599855 0 .394271.0272024.7258303.1074603 1.4486843.0081267.0731527.0423216.3856948.1025847.9376264l-.65550578.3005679c-5.07537861 2.3272047-8.96522972 8.3690002-8.96522972 14.9033357 0 3.8552016 1.75551505 7.8940168 4.58109886 11.6135126l.28463096.3746779-.10723775.4581466c-.38808644 1.6580028-.48989502 3.3942653-.28748525 5.1419991.81278782 7.0714444 6.83699218 11.8214129 13.49032308 11.0844098l.9517757-.1054301.146544.9463177c.5090576 3.2872722 2.8547645 6.3630742 5.7891012 7.7217825l-.8403587 1.8148821c-3.263219-1.5109932-5.87805-4.7250894-6.7444399-8.3175689-7.3726065.3426838-13.87800884-5.0696688-14.77976498-12.9151615-.21032648-1.8160883-.13003864-3.6248951.2258994-5.3660839-2.90345263-3.93488-4.71008662-8.2208599-4.71008662-12.4514839 0-7.0396355 4.02281326-13.5552424 9.47904559-16.4016446-.04950151-.4922529-.06835511-.8078913-.06835511-1.1885697 0-8.1214396 5.05015562-14.53667148 12.04232042-15.15285482 1.8239237-5.04108704 6.94661-8.68835946 12.4557986-8.68835946z"/><path d="m33.9047619 22.4858071v2c-7.5193177 0-13.7142857-4.8048708-13.7142857-11.5952381v-4.23809519h2v4.23809519c0 5.5587048 5.2043428 9.5952381 11.7142857 9.5952381z"/><path d="m16.9632314 40.7620263.2495372-1.9843717c5.2072588.6548194 8.9129453-.3750989 11.5589877-3.8436294 4.5227503-5.9337413 10.7745164-6.0516211 15.2717235-.7276498.8664025 1.0260718 1.4565202 2.5994795 1.4565202 3.9423936h-2c0-.8646379-.4192835-1.9825569-.9845017-2.6519392-3.6756066-4.3513282-8.4094023-4.2620704-12.1533657.6499209-3.1475424 4.1259154-7.5532096 5.3503788-13.3989012 4.6152756z"/><path d="m44.6456842 15.8981988.4163935 1.9561739c-5.5670721 1.1850137-10.8567873-1.9563096-12.8376933-7.3507624l1.8774217-.68941111c1.6467333 4.48442541 5.9771678 7.05607501 10.5438781 6.08399961z"/><path d="m44.5 58.5096167v2c-5.4964971 0-8.2235626 1.5176891-9.6491632 5.6810907l-1.8921498-.6478957c1.7361285-5.0702845 5.2631918-7.033195 11.541313-7.033195z"/><path d="m24.4626621 19.339248.4853568 1.9402136c-3.4541569.8640792-6.0130356 3.1916921-6.0130356 5.7981313h-2c0-3.6918852 3.2804778-6.6758806 7.5276788-7.7383449z"/><path d="m11.7142857 53.1524738h2c0 3.1030392 2.1277294 5.3571429 5.3571429 5.3571429h2.1190476v2h-2.1190476c-4.3606078 0-7.3571429-3.1745111-7.3571429-7.3571429z"/><path d="m28.6666667 53.1524738c0-4.5380916 3.2479595-7.3571428 7.3571428-7.3571428v2c-3.0626038 0-5.3571428 1.9915344-5.3571428 5.3571428v3.1190476h-1c-5.9508042 0-9.5952381 3.4432517-9.5952381 9.5952381v4.2380953h-2v-4.2380953c0-6.9314427 4.1347203-11.1722747 10.5952381-11.5652845z"/><path d="m11.1663214 34.8471024v-2c3.8223582 0 6.9206191 3.0990268 6.9206191 6.9227381 0 3.8222687-3.0989371 6.9227381-6.9206191 6.9227381v-2c2.7168911 0 4.9206191-2.2048176 4.9206191-4.9227381 0-2.7192524-2.2029411-4.9227381-4.9206191-4.9227381z"/><path d="m58.2886429 80.5320738c-8.057598 0-14.7886429-6.1520303-14.7886429-13.6909762h2c0 6.3922201 5.7974626 11.6909762 12.7886429 11.6909762 5.337651 0 11.0722827-4.0295583 12.820674-8.7734594l.2707-.734489.7780004.0864181c6.4228956.7134373 11.5392693-3.7908323 12.3755033-11.0852994.2007538-1.7334319.0955019-3.4685839-.2942054-5.1422744l-.1065905-.4577778.2844492-.37418c2.2618135-2.9753128 3.5658737-7.0567347 3.5658737-11.4352476 0-6.903555-3.2916684-12.9229167-7.998944-15.0813357l-.6579907-.3017073.0810857-.7193081c.0524079-.4649088.0699919-.9439662.0699919-1.6658632 0-7.3851712-4.7478501-13.18691357-10.9406109-13.38247443l-.7223299-.02281042-.205022-.69299844c-1.3099142-4.42766308-6.0320668-7.742931-11.0115848-7.742931-6.043691 0-11.0976429 4.90957064-11.0976429 10.84547619h-2c0-7.05365566 5.9621471-12.84547619 13.0976429-12.84547619 5.5922953 0 10.8876343 3.549482 12.7063809 8.50226497 6.9986579.62602076 12.1731667 7.21079062 12.1731667 15.33894932 0 .4612326-.0067923.8384462-.0248843 1.1829881 5.1217721 2.7255163 8.5307414 9.2467362 8.5307414 16.5852262 0 4.6268346-1.3353853 8.9780266-3.6961468 12.2697256.3584457 1.7536096.4426675 3.5623837.2334731 5.3686916-.9246449 8.0656822-6.6166098 13.3210926-13.8236243 12.9081559-2.3085823 5.201022-8.4971449 9.3697364-14.4081067 9.3697364z"/><path d="m54.9167669 21.2794616.4853567-1.9402136c4.247201 1.0624643 7.5276788 4.0464597 7.5276788 7.7383449h-2c0-2.6064392-2.5588787-4.9340521-6.0130355-5.7981313z"/><path d="m57.5448358 14.504302 1.9999999.0006913c-.0023153 6.6979162-5.7661814 12.0992257-12.8454762 12.0992257h-2.1995714v-2h2.1995714c6.0028462 0 10.8435531-4.5362185 10.8454763-10.099917z"/><path d="m67.8095238 54.2715214v2c-6.0087098 0-9.5952381 3.2562495-9.5952381 9.5952381h-2c0-7.4889759 4.5227572-11.5952381 11.5952381-11.5952381z"/><path d="m60.9739401 57.8561806-1.4723945 1.3535341c-3.1412248-3.417071-7.6520517-5.057029-15.0019694-5.057029v-2c7.8705851 0 12.9182909 1.8351459 16.4743639 5.7034949z"/><path d="m69.5928929 19.6823286h2c0 2.7714108 2.0481741 4.9227381 4.7171904 4.9227381h6.3338334v2h-6.3338334c-3.7961634 0-6.7171904-3.0681401-6.7171904-6.9227381z"/><path d="m78.0012952 34.5400095v2c-2.7181929 0-4.9227381 2.2040004-4.9227381 4.9227381 0 2.7168911 2.2048176 4.9206191 4.9227381 4.9206191v2c-3.8222687 0-6.9227381-3.0989371-6.9227381-6.9206191 0-3.8234178 3.1000863-6.9227381 6.9227381-6.9227381z"/><path d="m51.7738429 34.8471024v-2c3.8240942 0 6.9227381 3.0986438 6.9227381 6.9227381 0 3.8226518-3.0993203 6.9227381-6.9227381 6.9227381v-2c2.7187377 0 4.9227381-2.2045452 4.9227381-4.9227381 0-2.7195248-2.2032134-4.9227381-4.9227381-4.9227381z"/><path d="m59.1009515 39.7533184-1.1160459-1.6596511c4.2593261-2.8642186 12.0458783-2.3549283 14.9266777 1.9684368l-1.6643571 1.1090156c-2.1931128-3.2913182-8.7248917-3.7185383-12.1462747-1.4178013z"/><path d="m83.9000749 52.6452764 1.7236598 1.0143948c-1.5661767 2.6612474-4.0264484 4.3698547-7.1045686 4.7243321l-.2288084-1.9868685c2.4313468-.2799948 4.3511072-1.6132283 5.6097172-3.7518584z"/><path d="m67.6563165 8.05752121 1.825348.81737663-1.8266191 4.07916666-1.825348-.8173766z"/><path d="m67.8095238 62.6286643v-2c2.8917133 0 5.2380952 2.3463819 5.2380952 5.2380952v4.2380953h-2v-4.2380953c0-1.7871438-1.4509514-3.2380952-3.2380952-3.2380952z"/></g></svg>