<svg height="89" viewBox="0 0 108 89" width="108" xmlns="http://www.w3.org/2000/svg"><g fill="#0086ff" transform="matrix(0 1 -1 0 106.5 1.5)"><path d="m77.9473684 90.5263158h-2v-22.631579c0-.5522847.4477153-1 1-1h6.8257878l-15.8784194-17.8632217-15.8784193 17.8632217h6.8257878c.5522847 0 1 .4477153 1 1v15.8421053h-2v-14.8421053h-8.0526316c-.8628488 0-1.3206549-1.0194625-.7474093-1.6643638l18.1052631-20.368421c.397791-.4475149 1.0970277-.4475149 1.4948187 0l18.1052631 20.368421c.5732456.6449013.1154395 1.6643638-.7474093 1.6643638h-8.0526316z"/><path d="m57.5789474 40.7368421h-2v-22.6315789c0-.5522848.4477152-1 1-1h6.8488633l-13.638337-15.58667094-13.6383371 15.58667094h6.8488634c.5522847 0 1 .4477152 1 1v9.0526315h-2v-8.0526315h-8.0526316c-.8591588 0-1.3183367-1.0119218-.7525767-1.6585046l15.8421053-18.10526321c.3984113-.45532719 1.1067421-.45532719 1.5051534 0l15.8421052 18.10526321c.5657601.6465828.1065822 1.6585046-.7525767 1.6585046h-8.0526315z"/><path d="m66.8947368 81.4736842h2v15.8421053h-2z"/><path d="m66.8947368 101.842105h2v4.526316h-2z"/><path d="m28.4210526 63.3684211h2v18.1052631h-2z"/><path d="m28.4210526 86h2v4.5263158h-2z"/><path d="m28.4210526 95.0526316h2v4.5263158h-2z"/><path d="m73.6842105 9.05263158h2v15.84210522h-2z"/><path d="m73.6842105 29.4210526h2v4.5263158h-2z"/><path d="m73.6842105 38.4736842h2v4.5263158h-2z"/><path d="m19.3684211 79.2105263h2v18.1052632h-2z"/><path d="m19.3684211 101.842105h2v4.526316h-2z"/><path d="m39.4736842 50.7894737v21.6315789h-2v-22.6315789c0-.5522848.4477153-1 1-1h11.3057123l-22.6529136-24.7122694-24.71226934 24.7122694h13.42789174c.5522847 0 1 .4477152 1 1v22.6315789h-2v-21.6315789h-14.8421053c-.89090485 0-1.33707164-1.0771419-.70710678-1.7071068l27.15789478-27.1578947c.4025776-.4025777 1.0595501-.3883024 1.4442609.0313821l24.8947368 27.1578948c.5879514.6414014.1329508 1.6757246-.7371541 1.6757246z"/></g></svg>