<svg height="85" viewBox="0 0 78 85" width="78" xmlns="http://www.w3.org/2000/svg"><g fill="none" fill-rule="evenodd" transform=""><g fill="#fff" fill-rule="nonzero"><path d="m4 9.95054945c-1.38071187 0-2.5 1.11928815-2.5 2.50000005v68.5494505c0 1.3807119 1.11928813 2.5 2.5 2.5h70c1.3807119 0 2.5-1.1192881 2.5-2.5v-68.5494505c0-1.3807119-1.1192881-2.50000005-2.5-2.50000005-4.7178393 0-8.1952156 0-10.4321289 0-21.2489897 0-37.6049467 0-49.0678711 0-2.2825521 0-5.78255208 0-10.5 0zm0-1.5h10.5 49.0146484 10.4853516c2.209139 0 4 1.79086105 4 4.00000005v68.5494505c0 2.209139-1.790861 4-4 4h-70c-2.209139 0-4-1.790861-4-4v-68.5494505c0-2.209139 1.790861-4.00000005 4-4.00000005z"/><path d="m.65963855 28.5741758v-1.5h76.73356575v1.5z"/><path d="m.65963855 47.4752747v-1.5h76.73356575v1.5z"/><path d="m26.0331325 27.0661751h1.5v57.3193831h-1.5z"/><path d="m50.936747 27.5387026h1.5v57.3193831h-1.5z"/></g><path d="m15 8h6v3h-6z" fill="#ff9c1b"/><path d="m57 8h6v3h-6z" fill="#ff9c1b"/><path d="m17.8554217 1.5c-1.2476312 0-2.2590362 1.01140493-2.2590362 2.25903614v10.43797166c0 1.2476312 1.011405 2.2590362 2.2590362 2.2590362s2.2590361-1.011405 2.2590361-2.2590362v-10.43797166c0-1.24763121-1.0114049-2.25903614-2.2590361-2.25903614zm0-1.5c2.0760583 0 3.7590361 1.68297781 3.7590361 3.75903614v10.43797166c0 2.0760583-1.6829778 3.7590362-3.7590361 3.7590362s-3.7590362-1.6829779-3.7590362-3.7590362v-10.43797166c0-2.07605833 1.6829779-3.75903614 3.7590362-3.75903614z" fill="#fff" fill-rule="nonzero"/><path d="m60.1445783 1.5c-1.2476312 0-2.2590361 1.01140493-2.2590361 2.25903614v10.43797166c0 1.2476312 1.0114049 2.2590362 2.2590361 2.2590362s2.2590362-1.011405 2.2590362-2.2590362v-10.43797166c0-1.24763121-1.011405-2.25903614-2.2590362-2.25903614zm0-1.5c2.0760583 0 3.7590362 1.68297781 3.7590362 3.75903614v10.43797166c0 2.0760583-1.6829779 3.7590362-3.7590362 3.7590362s-3.7590361-1.6829779-3.7590361-3.7590362v-10.43797166c0-2.07605833 1.6829778-3.75903614 3.7590361-3.75903614z" fill="#fff" fill-rule="nonzero"/><path d="m.65963855 66.3763736v-1.5h76.73356575v1.5z" fill="#fff" fill-rule="nonzero"/><path d="m12.0271084 34.3999164v5.7496177l4.4468651-2.8748088zm-1.5 8.5054945v-11.2613713l8.7097615 5.6306857z" fill="#fff" fill-rule="nonzero"/><path d="m61.8343373 53.3010153v5.7496177l4.4468651-2.8748088zm-1.5 8.5054945v-11.2613713l8.7097615 5.6306857z" fill="#fff" fill-rule="nonzero"/></g></svg>