<svg height="96" viewBox="0 0 184 96" width="184" xmlns="http://www.w3.org/2000/svg"><g fill="#fff" transform=""><path d="m10.8398652 84.5682382-1.195052-.9065599 35.8175231-47.2156378 1.195052.9065599z"/><path d="m55.4767134 35.7790782.7442084-1.3023648 8.3023648 4.7442084-.7442084 1.3023648z"/><path d="m114.976713 69.2790782.744209-1.3023648 8.302365 4.7442084-.744209 1.3023648z"/><path d="m132.687899 72.5438841-1.231783-.855985 41.855985-60.2317832 1.231783.855985z"/><path d="m6.98684211 95.1447368c-3.72065516 0-6.73684211-3.0161869-6.73684211-6.7368421 0-3.7206551 3.01618695-6.7368421 6.73684211-6.7368421 3.72065519 0 6.73684209 3.016187 6.73684209 6.7368421 0 3.7206552-3.0161869 6.7368421-6.73684209 6.7368421zm0-1.5c2.89222803 0 5.23684209-2.344614 5.23684209-5.2368421 0-2.892228-2.34461406-5.2368421-5.23684209-5.2368421-2.89222804 0-5.23684211 2.3446141-5.23684211 5.2368421 0 2.8922281 2.34461407 5.2368421 5.23684211 5.2368421z"/><path d="m50.0921053 38.8684211c-3.7206552 0-6.7368421-3.016187-6.7368421-6.7368422 0-3.7206551 3.0161869-6.7368421 6.7368421-6.7368421 3.7206551 0 6.7368421 3.016187 6.7368421 6.7368421 0 3.7206552-3.016187 6.7368422-6.7368421 6.7368422zm0-1.5c2.892228 0 5.2368421-2.3446141 5.2368421-5.2368422 0-2.892228-2.3446141-5.2368421-5.2368421-5.2368421-2.8922281 0-5.2368421 2.3446141-5.2368421 5.2368421 0 2.8922281 2.344614 5.2368422 5.2368421 5.2368422z"/><path d="m128.921053 83.1710526c-3.720656 0-6.736842-3.0161869-6.736842-6.7368421 0-3.7206551 3.016186-6.7368421 6.736842-6.7368421 3.720655 0 6.736842 3.016187 6.736842 6.7368421 0 3.7206552-3.016187 6.7368421-6.736842 6.7368421zm0-1.5c2.892228 0 5.236842-2.344614 5.236842-5.2368421 0-2.892228-2.344614-5.2368421-5.236842-5.2368421s-5.236842 2.3446141-5.236842 5.2368421c0 2.8922281 2.344614 5.2368421 5.236842 5.2368421z"/><path d="m177.013158 13.7236842c-3.720655 0-6.736842-3.0161869-6.736842-6.73684209 0-3.72065516 3.016187-6.73684211 6.736842-6.73684211s6.736842 3.01618695 6.736842 6.73684211c0 3.72065519-3.016187 6.73684209-6.736842 6.73684209zm0-1.5c2.892228 0 5.236842-2.34461406 5.236842-5.23684209 0-2.89222804-2.344614-5.23684211-5.236842-5.23684211s-5.236842 2.34461407-5.236842 5.23684211c0 2.89222803 2.344614 5.23684209 5.236842 5.23684209z"/><path d="m89.0065789 84.3684211c-16.6157773 0-30.0855263-13.469749-30.0855263-30.0855264 0-16.6157773 13.469749-30.0855263 30.0855263-30.0855263 16.6157771 0 30.0855261 13.469749 30.0855261 30.0855263 0 16.6157774-13.469749 30.0855264-30.0855261 30.0855264zm0-1.5c15.7873501 0 28.5855261-12.7981761 28.5855261-28.5855264 0-15.7873502-12.798176-28.5855263-28.5855261-28.5855263-15.7873502 0-28.5855263 12.7981761-28.5855263 28.5855263 0 15.7873503 12.7981761 28.5855264 28.5855263 28.5855264z"/><path d="m89.3355263 79.0855263c-13.6690475 0-24.75-11.0809524-24.75-24.75 0-13.6690475 11.0809525-24.75 24.75-24.75 13.6690477 0 24.7499997 11.0809525 24.7499997 24.75 0 13.6690476-11.080952 24.75-24.7499997 24.75zm0-1.5c12.8406207 0 23.2499997-10.4093796 23.2499997-23.25s-10.409379-23.25-23.2499997-23.25c-12.8406204 0-23.25 10.4093796-23.25 23.25s10.4093796 23.25 23.25 23.25z"/><path d="m85.5657895 48.0334795v13.6961989l8.8046992-6.8480995zm-1.5 16.7631579v-19.8301169l12.7479323 9.9150584z"/></g></svg>