<svg height="93" viewBox="0 0 93 93" width="93" xmlns="http://www.w3.org/2000/svg"><g fill="#fff" fill-rule="evenodd" transform="translate(1 1)"><g fill-rule="nonzero"><path d="m46.0065789 83.8618421v-1.5c.490913 0 .9806784-.009536 1.4691204-.0285606l.0583801 1.4988635c-.5078913.0197821-1.0171204.0296971-1.5275005.0296971zm8.6152075-.9657195-.333605-1.4624321c.4786803-.1091949.9547107-.2278542 1.4278717-.3558856l.3917914 1.4479293c-.4924478.1332502-.9878774.2567451-1.4860581.3703884zm8.1782673-2.8715765-.6537625-1.350035c.4407924-.2134563.8772446-.4356395 1.3091163-.6664013l.7069082 1.3229818c-.4493964.2401258-.9035672.4713288-1.362262.6934545zm7.3100215-4.6175183-.9378686-1.1706418c.3827227-.3066213.7593749-.620785 1.129724-.9422882l.9833281 1.132725c-.3852485.3344374-.7770566.6612426-1.1751835.980205zm6.131214-6.1593076-1.1749215-.9325017c.3046369-.3838325.6016659-.7736318.8908942-1.1691618l1.2108137.8853983c-.3008845.4114703-.6098801.8169737-.9267864 1.2162652zm4.6161785-7.3988303-1.3543008-.6448793c.2106376-.4423566.4124825-.8889409.6053981-1.3395142l1.3789249.5903948c-.2007653.4689071-.4108203.9336563-.6300222 1.3939987zm2.7961829-8.1005315-1.4637563-.3277461c.1069616-.4777047.204494-.9579537.292515-1.4405353l1.4756546.2691535c-.0915991.5021987-.1930987 1.0019824-.3044133 1.4991279zm.9315108-8.6350176-1.4999861.0064569c-.0021161-.4915933-.0137993-.9820094-.0350014-1.4710709l1.4985924-.0649679c.022047.5085525.034195 1.018476.0363951 1.5295819zm-1.0031678-8.609753-1.4609524.3400268c-.1111076-.477383-.2316399-.9520936-.3615039-1.4239126l1.4462189-.398059c.135158.491053.2606028.9851114.3762374 1.4819448zm-2.908996-8.1686437-1.3470978.6597935c-.2156037-.4401973-.4399293-.8760126-.672827-1.3072049l1.3197891-.712851c.2423465.4486859.4757771.9021904.7001357 1.3602624zm-4.6466593-7.2852525-1.1666028.9428881c-.3079727-.3810439-.6234465-.7559968-.9462182-1.1246274l1.1285314-.9881382c.3357559.3834596.6639227.7734987.9842896 1.1698775zm-6.1884322-6.1069841-.9273343 1.1790043c-.385305-.3030579-.7765483-.5984753-1.1734931-.88606l.8800497-1.2147068c.4129445.2991765.8199523.6064971 1.2207777.9217625zm-7.4174424-4.5827238-.6389381 1.357114c-.4433361-.2087256-.8908674-.4086379-1.3423552-.5996015l.5843289-1.3815063c.4698617.1987351.9355994.4067802 1.3969644.6239938zm-8.1130261-2.76063704-.3213068 1.46518327c-.4782789-.10488396-.9590718-.20032744-1.4421677-.28624922l.2626627-1.47682371c.5027284.08941353 1.0030731.18873829 1.5008118.29788966zm-8.6378516-.89395748.0128392 1.49994505c-.4910391.00420318-.9808776.01795669-1.4693378.04121164l-.0713322-1.49830294c.5079432-.02418252 1.0172832-.03848358 1.5278308-.04285375zm-8.609784 1.04146486.3465815 1.45941128c-.4770183.11328249-.9513302.23598697-1.4227156.36801945l-.4045715-1.44441057c.4906034-.13741534.984249-.26512146 1.4807056-.38302016zm-8.1519887 2.94389906.6656805 1.3441985c-.4388925.2173504-.8733764.4433894-1.3032111.6779664l-.7185656-1.3166865c.4472698-.244092.8993854-.4793038 1.3560962-.7054784zm-7.2664881 4.67959.9479977 1.1624544c-.3797854.3097203-.7534442.6269175-1.1207455.9513875l-.9930874-1.1241785c.3820756-.3375215.7707671-.66748 1.1658352-.9896634zm-6.0798338 6.2151981 1.1830651.9221479c-.3014439.386736-.5952161.7793806-.8811253 1.1776964l-1.2185741-.8746869c.2974352-.4143732.6030462-.8228411.9166343-1.2251574zm-4.5507459 7.4392618 1.3599627.6328518c-.2066802.444144-.4045337.8924461-.5934262 1.3446684l-1.3841079-.5781396c.196581-.470629.4024849-.937172.6175714-1.3993806zm-2.72348921 8.1221003 1.46658249.3148584c-.10275283.4786136-.19606334.9597086-.2798513 1.4430751l-1.47795974-.2561933c.08719198-.503004.18429601-1.0036579.29122855-1.5017402zm-.85634523 8.6441449 1.49987493-.0193694c.00634935.4916637.02227831.9820968.04773709 1.4711197l-1.4979714.0779852c-.02647511-.508545-.04303879-1.0185204-.04964062-1.5297355zm1.07884831 8.6021811 1.45787594-.3529841c.11541619.4766859.24025299.9506314.37441509 1.4216159l-1.44261299.4109351c-.13963227-.4901876-.26955808-.9834539-.38967804-1.4795669zm2.98122683 8.1421407 1.3412109-.6716794c.2194764.438251.4476348.8720521.6843232 1.301162l-1.3134467.7244708c-.246287-.4465121-.4837024-.8979136-.7120874-1.3539534zm4.7108178 7.2443462 1.1582845-.953088c.3114466.3785.6303453.7508385.9564906 1.1167849l-1.1198067.9980144c-.3392632-.3806651-.6709904-.7679818-.9949684-1.1617113zm6.2418686 6.052588.9169425-1.1871042c.3877424.2994998.7813508.5913133 1.1805881.8752509l-.8693579 1.2223817c-.4153344-.2953859-.8248073-.5989611-1.2281727-.9105284zm7.4609855 4.518672.6267499-1.3627856c.4451413.2047221.8944077.4005963 1.3475612.5874895l-.5719111 1.3866931c-.4716009-.1945014-.9391503-.3983468-1.4024-.611397zm8.1347295 2.6870836.3082576-1.467984c.4790923.1006031.9606343.1917565 1.4444168.273381l-.2495549 1.4790951c-.5034307-.0849395-1.0045441-.1797977-1.5031195-.2844921z"/><path d="m45.6644737 91.5789474c-25.3578636 0-45.9144737-20.5566101-45.9144737-45.9144737s20.5566101-45.9144737 45.9144737-45.9144737 45.9144737 20.5566101 45.9144737 45.9144737-20.5566101 45.9144737-45.9144737 45.9144737zm0-1.5c24.5294365 0 44.4144737-19.8850372 44.4144737-44.4144737s-19.8850372-44.4144737-44.4144737-44.4144737-44.4144737 19.8850372-44.4144737 44.4144737 19.8850372 44.4144737 44.4144737 44.4144737z"/><path d="m46.1644737 75.5789474c-16.2451653 0-29.4144737-13.1693085-29.4144737-29.4144737 0-16.2451653 13.1693084-29.4144737 29.4144737-29.4144737 16.2451652 0 29.4144737 13.1693084 29.4144737 29.4144737 0 16.2451652-13.1693085 29.4144737-29.4144737 29.4144737zm0-1.5c15.4167381 0 27.9144737-12.4977356 27.9144737-27.9144737s-12.4977356-27.9144737-27.9144737-27.9144737-27.9144737 12.4977356-27.9144737 27.9144737 12.4977356 27.9144737 27.9144737 27.9144737z"/></g><path d="m72.3795725 17.2062139 8.131728-8.13172794c.2928932-.29289322.7677669-.29289322 1.0606601 0 .2928933.29289322.2928933.76776696 0 1.06066014l-8.1317279 8.131728c-.2928933.2928932-.767767.2928932-1.0606602 0s-.2928932-.7677669 0-1.0606602z"/><path d="m9.07448596 81.5113005 8.13172794-8.131728c.2928933-.2928932.767767-.2928932 1.0606602 0s.2928932.7677669 0 1.0606602l-8.131728 8.1317279c-.29289318.2928933-.76776692.2928933-1.06066014 0-.29289322-.2928932-.29289322-.7677669 0-1.0606601z"/><path d="m10.8422529 8.07448596 8.131728 8.13172794c.2928932.2928933.2928932.767767 0 1.0606602s-.767767.2928932-1.0606602 0l-8.13172796-8.13172797c-.29289321-.29289321-.29289321-.76776695 0-1.06066017.29289326-.29289322.76776696-.29289322 1.06066016 0z"/><path d="m75.1473394 71.6724657 8.131728 8.131728c.2928932.2928932.2928932.7677669 0 1.0606602-.2928932.2928932-.7677669.2928932-1.0606601 0l-8.131728-8.131728c-.2928932-.2928932-.2928932-.767767 0-1.0606602s.7677669-.2928932 1.0606601 0z"/></g></svg>